<svg width="16" height="17" viewBox="0 0 16 17" fill="none" xmlns="http://www.w3.org/2000/svg">
<g clip-path="url(#clip0_739_1097)">
<path d="M10.6667 7.16699L12.0996 7.59687C13.0151 7.87151 13.4728 8.00883 13.7364 8.36313C14 8.71742 14 9.19531 14 10.1511V15.167" stroke="#5C6170" stroke-linejoin="round"/>
<path d="M5.33333 6.5L7.33333 6.5M5.33333 9.16667L7.33333 9.16667" stroke="#5C6170" stroke-linecap="round" stroke-linejoin="round"/>
<path d="M8 15.1668V13.1668C8 12.5383 8 12.224 7.80474 12.0288C7.60948 11.8335 7.29521 11.8335 6.66667 11.8335H6C5.37146 11.8335 5.05719 11.8335 4.86193 12.0288C4.66667 12.224 4.66667 12.5383 4.66667 13.1668V15.1668" stroke="#5C6170" stroke-linejoin="round"/>
<path d="M1.33333 15.1665L14.6667 15.1665" stroke="#5C6170" stroke-linecap="round"/>
<path d="M2 15.1668V4.97832C2 3.30449 2 2.46757 2.52746 2.05233C3.05491 1.63708 3.83161 1.86253 5.38501 2.31343L8.71835 3.28098C9.65576 3.55307 10.1245 3.68912 10.3956 4.05993C10.6667 4.43074 10.6667 4.93579 10.6667 5.94587V15.1668" stroke="#5C6170" stroke-linecap="round" stroke-linejoin="round"/>
</g>
<defs>
<clipPath id="clip0_739_1097">
<rect width="16" height="16" fill="white" transform="translate(0 0.5)"/>
</clipPath>
</defs>
</svg>
