<svg width="24" height="25" viewBox="0 0 24 25" fill="none" xmlns="http://www.w3.org/2000/svg">
<path d="M16 10.0742L18.1494 10.719C19.5226 11.131 20.2092 11.337 20.6046 11.8684C21 12.3999 21 13.1167 21 14.5503V22.0742" stroke="#454954" stroke-width="1.5" stroke-linejoin="round"/>
<path d="M8 9.07422L11 9.07422M8 13.0742L11 13.0742" stroke="#454954" stroke-width="1.5" stroke-linecap="round" stroke-linejoin="round"/>
<path d="M12 22.0742V19.0742C12 18.1314 12 17.66 11.7071 17.3671C11.4142 17.0742 10.9428 17.0742 10 17.0742H9C8.05719 17.0742 7.58579 17.0742 7.29289 17.3671C7 17.66 7 18.1314 7 19.0742V22.0742" stroke="#454954" stroke-width="1.5" stroke-linejoin="round"/>
<path d="M2 22.0742L22 22.0742" stroke="#454954" stroke-width="1.5" stroke-linecap="round"/>
<path d="M3 22.0742V6.79146C3 4.28071 3 3.02533 3.79118 2.40246C4.58237 1.77959 5.74742 2.11777 8.07752 2.79411L13.0775 4.24544C14.4836 4.65358 15.1867 4.85766 15.5933 5.41387C16 5.97009 16 6.72765 16 8.24279V22.0742" stroke="#454954" stroke-width="1.5" stroke-linecap="round" stroke-linejoin="round"/>
</svg>
