<svg width="40" height="40" viewBox="0 0 40 40" fill="none" xmlns="http://www.w3.org/2000/svg">
<path d="M39.5 0.5V39.5H0.5V0.5H39.5Z" stroke="#C7C9D1"/>
<path d="M13.1481 19.9518C12.3581 18.5743 11.9766 17.4494 11.7466 16.3092C11.4064 14.6228 12.1849 12.9755 13.4746 11.9244C14.0196 11.4802 14.6444 11.6319 14.9668 12.2102L15.6944 13.5156C16.2712 14.5503 16.5595 15.0677 16.5023 15.6162C16.4451 16.1647 16.0562 16.6114 15.2784 17.5048L13.1481 19.9518ZM13.1481 19.9518C14.7472 22.7401 17.2566 25.2509 20.0481 26.8518M20.0481 26.8518C21.4257 27.6418 22.5505 28.0233 23.6907 28.2533C25.3771 28.5935 27.0244 27.815 28.0755 26.5254C28.5198 25.9803 28.368 25.3555 27.7897 25.0332L26.4843 24.3055C25.4496 23.7288 24.9323 23.4404 24.3838 23.4976C23.8353 23.5548 23.3885 23.9437 22.4951 24.7215L20.0481 26.8518Z" stroke="#FAFAFA" stroke-width="1.25" stroke-linejoin="round"/>
</svg>
