<svg width="41" height="40" viewBox="0 0 41 40" fill="none" xmlns="http://www.w3.org/2000/svg">
<rect x="0.429688" width="40" height="40" rx="20" fill="#F5E6D6"/>
<path d="M21.6177 29.367C21.1841 29.773 20.6044 30 20.0011 30C19.3978 30 18.8182 29.773 18.3845 29.367C14.413 25.626 9.09076 21.4469 11.6863 15.3797C13.0896 12.0992 16.4583 10 20.0011 10C23.5439 10 26.9126 12.0992 28.316 15.3797C30.9082 21.4393 25.599 25.6389 21.6177 29.367Z" stroke="#231609" stroke-width="1.5"/>
<path d="M23.5 19C23.5 20.933 21.933 22.5 20 22.5C18.067 22.5 16.5 20.933 16.5 19C16.5 17.067 18.067 15.5 20 15.5C21.933 15.5 23.5 17.067 23.5 19Z" stroke="#231609" stroke-width="1.5"/>
</svg>
