<svg width="41" height="40" viewBox="0 0 41 40" fill="none" xmlns="http://www.w3.org/2000/svg">
<rect x="0.429688" width="40" height="40" rx="20" fill="#F5E6D6"/>
<path d="M10 14L16.913 17.917C19.4616 19.361 20.5384 19.361 23.087 17.917L30 14" stroke="#231609" stroke-width="1.5" stroke-linejoin="round"/>
<path d="M10.0158 21.4756C10.0811 24.5412 10.1138 26.0739 11.245 27.2094C12.3761 28.3448 13.9503 28.3843 17.0988 28.4634C19.0393 28.5122 20.9607 28.5122 22.9012 28.4634C26.0497 28.3843 27.6239 28.3448 28.7551 27.2094C29.8862 26.0739 29.9189 24.5412 29.9842 21.4756C30.0053 20.4899 30.0053 19.5101 29.9842 18.5244C29.9189 15.4589 29.8862 13.9261 28.7551 12.7907C27.6239 11.6552 26.0497 11.6157 22.9012 11.5366C20.9607 11.4878 19.0393 11.4878 17.0988 11.5366C13.9503 11.6157 12.3761 11.6552 11.245 12.7906C10.1138 13.9261 10.0811 15.4588 10.0158 18.5244C9.99474 19.5101 9.99475 20.4899 10.0158 21.4756Z" stroke="#231609" stroke-width="1.5" stroke-linejoin="round"/>
</svg>
