<svg width="41" height="40" viewBox="0 0 41 40" fill="none" xmlns="http://www.w3.org/2000/svg">
<rect x="0.429688" width="40" height="40" rx="20" fill="#F5E6D6"/>
<path d="M11.7776 19.9424C10.8296 18.2893 10.3718 16.9395 10.0958 15.5712C9.68762 13.5476 10.6218 11.5708 12.1694 10.3095C12.8234 9.77638 13.5732 9.95852 13.96 10.6524L14.8332 12.2189C15.5253 13.4606 15.8713 14.0814 15.8027 14.7396C15.7341 15.3978 15.2674 15.9339 14.334 17.006L11.7776 19.9424ZM11.7776 19.9424C13.6965 23.2883 16.7078 26.3013 20.0576 28.2224M20.0576 28.2224C21.7107 29.1704 23.0605 29.6282 24.4288 29.9042C26.4524 30.3124 28.4292 29.3782 29.6905 27.8306C30.2236 27.1766 30.0415 26.4268 29.3476 26.04L27.7811 25.1668C26.5394 24.4747 25.9186 24.1287 25.2604 24.1973C24.6022 24.2659 24.0661 24.7326 22.994 25.666L20.0576 28.2224Z" stroke="#231609" stroke-width="1.5" stroke-linejoin="round"/>
</svg>
