<svg width="16" height="16" viewBox="0 0 16 16" fill="none" xmlns="http://www.w3.org/2000/svg">
<g clip-path="url(#clip0_1498_5075)">
<path d="M14.5336 11.2005V13.0755C14.5343 13.2496 14.4986 13.4219 14.4289 13.5814C14.3592 13.7409 14.2569 13.884 14.1286 14.0017C14.0004 14.1194 13.8489 14.209 13.6841 14.2647C13.5192 14.3205 13.3444 14.3412 13.1711 14.3255C11.2479 14.1166 9.40046 13.4594 7.77734 12.4068C6.26723 11.4472 4.98692 10.1669 4.02734 8.6568C2.97107 7.0263 2.31374 5.16992 2.10859 3.23805C2.09297 3.06522 2.11351 2.89102 2.1689 2.72656C2.22429 2.5621 2.31332 2.41098 2.43032 2.28281C2.54731 2.15464 2.68972 2.05224 2.84846 1.98213C3.0072 1.91201 3.1788 1.87571 3.35234 1.87555H5.22734C5.53066 1.87256 5.82471 1.97997 6.05469 2.17776C6.28467 2.37554 6.43489 2.6502 6.47734 2.95055C6.55648 3.55059 6.70324 4.13975 6.91484 4.7068C6.99893 4.9305 7.01713 5.17362 6.96728 5.40735C6.91743 5.64108 6.80163 5.85562 6.63359 6.02555L5.83984 6.8193C6.72956 8.38401 8.02512 9.67958 9.58984 10.5693L10.3836 9.77555C10.5535 9.60751 10.7681 9.4917 11.0018 9.44186C11.2355 9.39201 11.4786 9.41021 11.7023 9.4943C12.2694 9.70589 12.8585 9.85266 13.4586 9.9318C13.7622 9.97463 14.0395 10.1276 14.2377 10.3615C14.4359 10.5954 14.5412 10.894 14.5336 11.2005Z" stroke="#5B432A" stroke-width="1.125" stroke-linecap="round" stroke-linejoin="round"/>
</g>
<defs>
<clipPath id="clip0_1498_5075">
<rect width="15" height="15" fill="white" transform="translate(0.783203 0.625)"/>
</clipPath>
</defs>
</svg>
