<svg width="19" height="19" viewBox="0 0 19 19" fill="none" xmlns="http://www.w3.org/2000/svg">
<path d="M13.6996 10.5102C13.6105 10.4601 13.5095 10.4032 13.3878 10.33C13.3199 10.289 13.2345 10.2329 13.144 10.1735C12.6795 9.86866 12.3276 9.65288 12.028 9.65288C11.9578 9.65288 11.8914 9.66476 11.8309 9.6881C11.5684 9.78918 11.3529 10.0592 11.1445 10.3203C11.0681 10.416 10.9587 10.5529 10.8924 10.6142C10.6292 10.5663 10.0741 10.2224 9.47513 9.62345C8.87544 9.02375 8.5315 8.46804 8.48429 8.20549C8.54543 8.13891 8.68345 8.02876 8.77971 7.95188C9.03983 7.74421 9.30881 7.52947 9.41045 7.2678C9.5401 6.93161 9.30248 6.52952 8.92508 5.95458C8.8657 5.86409 8.80959 5.77862 8.76888 5.71123C8.69537 5.58906 8.63856 5.48798 8.58842 5.3989C8.38265 5.0332 8.2467 4.7915 7.73585 4.7915C7.40429 4.7915 6.93552 5.10482 6.61798 5.41553C6.15652 5.86718 5.90234 6.38862 5.90234 6.88481C5.90322 8.23249 6.65536 9.77712 7.96591 11.1242C7.96816 11.1264 7.97041 11.127 7.97273 11.1293C9.31978 12.4399 10.8652 13.1894 12.2129 13.1894H12.2134C12.7089 13.1894 13.2306 12.9382 13.6822 12.4769C13.9931 12.1594 14.3069 11.6941 14.3069 11.3627C14.3069 10.8519 14.0653 10.716 13.6996 10.5102ZM12.213 12.4931C11.0651 12.4923 9.6648 11.7966 8.46654 10.6322C7.30191 9.43375 6.60624 8.03333 6.6055 6.88552C6.6055 6.19121 7.50649 5.53109 7.74211 5.49491C7.79023 5.49512 7.81548 5.49797 7.8275 5.50001C7.85865 5.53587 7.92056 5.64591 7.97568 5.74389C8.02557 5.83255 8.08769 5.94294 8.16679 6.07439C8.21461 6.1536 8.27423 6.24441 8.33734 6.34052C8.45676 6.52249 8.69684 6.88826 8.73731 7.04439C8.66963 7.14019 8.45964 7.30781 8.3411 7.40245C8.03766 7.64471 7.77561 7.85389 7.77561 8.14952C7.77635 8.86362 8.69614 9.83885 8.97802 10.1207C9.25991 10.4026 10.2351 11.3224 10.9507 11.3231C11.2445 11.3222 11.4528 11.0612 11.694 10.759C11.7892 10.6399 11.9578 10.4286 12.054 10.3613C12.2099 10.4015 12.5762 10.6419 12.7583 10.7614C12.8544 10.8245 12.9452 10.8841 13.0249 10.9322C13.1559 11.011 13.2662 11.0732 13.3549 11.123C13.4529 11.1782 13.5629 11.2401 13.5988 11.2713C13.6008 11.2832 13.6036 11.3085 13.6039 11.3566C13.5674 11.592 12.9071 12.4923 12.213 12.4931Z" fill="#5B432A"/>
<path d="M17.0941 9.15866C17.0694 7.25878 16.3068 5.46349 14.9468 4.10347C13.5617 2.71839 11.7334 1.95557 9.79865 1.95557C7.93097 1.95557 6.18377 2.67423 4.87884 3.97913C3.72087 5.1371 3.01043 6.68152 2.87828 8.32792C2.75295 9.88998 3.1506 11.4707 3.99973 12.7999L2.8402 15.9341C2.82054 15.9873 2.81401 16.0444 2.82119 16.1006C2.82837 16.1569 2.84903 16.2105 2.88143 16.257C2.91382 16.3035 2.95698 16.3415 3.00723 16.3678C3.05748 16.394 3.11332 16.4077 3.17 16.4077C3.21627 16.4077 3.26296 16.3943 3.30722 16.3755L6.32711 15.0904C7.47995 15.8079 8.79817 16.1777 10.1518 16.1777H10.1519C12.0193 16.1777 13.7664 15.4676 15.0712 14.1629C16.4004 12.8336 17.1188 11.0619 17.0941 9.15866ZM14.5739 13.6742C13.4019 14.8463 11.8314 15.4917 10.1517 15.4917C8.87298 15.4916 7.62887 15.1174 6.55386 14.4092C6.50549 14.3774 6.45 14.358 6.39231 14.3527C6.33462 14.3475 6.27654 14.3566 6.22322 14.3792L3.78211 15.4146L4.72078 12.8773C4.74014 12.825 4.74676 12.7688 4.74009 12.7134C4.73343 12.6579 4.71368 12.6049 4.68246 12.5587C2.95713 10.0026 3.24882 6.6035 5.37602 4.47634C6.54813 3.30423 8.11877 2.65869 9.79865 2.65869C11.5456 2.65869 13.1973 3.34835 14.4496 4.60065C15.6793 5.83028 16.3687 7.45225 16.391 9.1678C16.4133 10.8798 15.7679 12.4803 14.5739 13.6742Z" fill="#5B432A"/>
</svg>
