<svg width="524" height="293" viewBox="0 0 524 293" fill="none" xmlns="http://www.w3.org/2000/svg">
<mask id="mask0_1357_18862" style="mask-type:luminance" maskUnits="userSpaceOnUse" x="-62" y="0" width="586" height="293">
<path d="M-62 293H524V0H-62V293Z" fill="white"/>
</mask>
<g mask="url(#mask0_1357_18862)">
<path d="M407.898 105.9V230.891" stroke="#888888" stroke-width="0.5274" stroke-miterlimit="10" stroke-linecap="round"/>
<path d="M318.752 208.87L277.766 185.207" stroke="#888888" stroke-width="0.5274" stroke-miterlimit="10" stroke-linecap="round"/>
<path d="M334.805 153.161V346.599" stroke="#888888" stroke-width="0.5274" stroke-miterlimit="10" stroke-linecap="round"/>
<path d="M366.91 171.699V213.596" stroke="#888888" stroke-width="0.5274" stroke-miterlimit="10" stroke-linecap="round"/>
<path d="M318.75 162.43V346.599" stroke="#888888" stroke-width="0.5274" stroke-miterlimit="10" stroke-linecap="round"/>
<path d="M346.418 225.427V348.285" stroke="#888888" stroke-width="0.5274" stroke-miterlimit="10" stroke-linecap="round"/>
<path d="M268.484 154.135L285.619 144.242" stroke="#888888" stroke-width="0.5274" stroke-miterlimit="10" stroke-linecap="round"/>
<path d="M285.617 144.242L302.752 154.135" stroke="#888888" stroke-width="0.5274" stroke-miterlimit="10" stroke-linecap="round"/>
<path d="M268.484 154.134V190.565" stroke="#888888" stroke-width="0.5274" stroke-miterlimit="10" stroke-linecap="round"/>
<path d="M302.754 154.134V199.632" stroke="#888888" stroke-width="0.5274" stroke-miterlimit="10" stroke-linecap="round"/>
<path d="M285.617 144.242V189.74" stroke="#888888" stroke-width="0.5274" stroke-miterlimit="10" stroke-linecap="round"/>
<path d="M407.898 105.9L433.906 120.916" stroke="#888888" stroke-width="0.5274" stroke-miterlimit="10" stroke-linecap="round"/>
<path d="M366.91 129.564L407.895 105.9" stroke="#888888" stroke-width="0.5274" stroke-miterlimit="10" stroke-linecap="round"/>
<path d="M366.91 129.564V213.596" stroke="#888888" stroke-width="0.5274" stroke-miterlimit="10" stroke-linecap="round"/>
<path d="M433.906 120.917V195.015" stroke="#888888" stroke-width="0.5274" stroke-miterlimit="10" stroke-linecap="round"/>
<path d="M459.609 180.176L484.459 194.524" stroke="#888888" stroke-width="0.5274" stroke-miterlimit="10" stroke-linecap="round"/>
<path d="M420.445 202.787L459.608 180.176" stroke="#888888" stroke-width="0.5274" stroke-miterlimit="10" stroke-linecap="round"/>
<path d="M459.609 180.176V348.89" stroke="#888888" stroke-width="0.5274" stroke-miterlimit="10" stroke-linecap="round"/>
<path d="M420.445 202.786V344.743" stroke="#888888" stroke-width="0.5274" stroke-miterlimit="10" stroke-linecap="round"/>
<path d="M484.457 194.523V348.89" stroke="#888888" stroke-width="0.5274" stroke-miterlimit="10" stroke-linecap="round"/>
<path d="M372.426 210.411L346.418 225.427" stroke="#888888" stroke-width="0.5274" stroke-miterlimit="10" stroke-linecap="round"/>
<path d="M420.444 238.135L372.426 210.412" stroke="#888888" stroke-width="0.5274" stroke-miterlimit="10" stroke-linecap="round"/>
<path d="M372.426 210.412V348.286" stroke="#888888" stroke-width="0.5274" stroke-miterlimit="10" stroke-linecap="round"/>
<path d="M366.91 192.113V213.596" stroke="#888888" stroke-width="0.5274" stroke-miterlimit="10" stroke-linecap="round"/>
<path d="M277.766 185.207L251.758 200.222" stroke="#888888" stroke-width="0.5274" stroke-miterlimit="10" stroke-linecap="round"/>
<path d="M277.766 185.207V346.422" stroke="#888888" stroke-width="0.5274" stroke-miterlimit="10" stroke-linecap="round"/>
<path d="M251.758 200.223V346.423" stroke="#888888" stroke-width="0.5274" stroke-miterlimit="10" stroke-linecap="round"/>
<path d="M230.008 226.427L251.757 238.985" stroke="#888888" stroke-width="0.5274" stroke-miterlimit="10" stroke-linecap="round"/>
<path d="M195.734 246.216L230.01 226.427" stroke="#888888" stroke-width="0.5274" stroke-miterlimit="10" stroke-linecap="round"/>
<path d="M230.008 226.427V350.744" stroke="#888888" stroke-width="0.5274" stroke-miterlimit="10" stroke-linecap="round"/>
<path d="M195.734 246.215V344.271" stroke="#888888" stroke-width="0.5274" stroke-miterlimit="10" stroke-linecap="round"/>
<path d="M366.913 171.699L334.805 153.161" stroke="#888888" stroke-width="0.5274" stroke-miterlimit="10" stroke-linecap="round"/>
<path d="M334.804 153.161L318.75 162.429" stroke="#888888" stroke-width="0.5274" stroke-miterlimit="10" stroke-linecap="round"/>
<path d="M156.539 138.905L168.002 145.523" stroke="#888888" stroke-width="0.5274" stroke-miterlimit="10" stroke-linecap="round"/>
<path d="M156.539 138.905V172.353" stroke="#888888" stroke-width="0.5274" stroke-miterlimit="10" stroke-linecap="round"/>
<path d="M168 145.524V172.533" stroke="#888888" stroke-width="0.5274" stroke-miterlimit="10" stroke-linecap="round"/>
<path d="M110.676 105.833L133.604 119.07" stroke="#888888" stroke-width="0.5274" stroke-miterlimit="10" stroke-linecap="round"/>
<path d="M74.543 126.694L110.673 105.833" stroke="#888888" stroke-width="0.5274" stroke-miterlimit="10" stroke-linecap="round"/>
<path d="M110.676 105.833V222.219" stroke="#888888" stroke-width="0.5274" stroke-miterlimit="10" stroke-linecap="round"/>
<path d="M74.543 126.694V206.972" stroke="#888888" stroke-width="0.5274" stroke-miterlimit="10" stroke-linecap="round"/>
<path d="M133.602 119.07V185.594" stroke="#888888" stroke-width="0.5274" stroke-miterlimit="10" stroke-linecap="round"/>
<path d="M74.543 188.034V206.972" stroke="#888888" stroke-width="0.5274" stroke-miterlimit="10" stroke-linecap="round"/>
<path d="M0.46566 181.946L-22.4609 195.182" stroke="#888888" stroke-width="0.5274" stroke-miterlimit="10" stroke-linecap="round"/>
<path d="M32.0854 200.202L0.464844 181.946" stroke="#888888" stroke-width="0.5274" stroke-miterlimit="10" stroke-linecap="round"/>
<path d="M0.464844 181.946V342.112" stroke="#888888" stroke-width="0.5274" stroke-miterlimit="10" stroke-linecap="round"/>
<path d="M162.113 169.133L185.041 182.37" stroke="#888888" stroke-width="0.5274" stroke-miterlimit="10" stroke-linecap="round"/>
<path d="M125.984 189.994L162.116 169.133" stroke="#888888" stroke-width="0.5274" stroke-miterlimit="10" stroke-linecap="round"/>
<path d="M162.113 169.133V345.09" stroke="#888888" stroke-width="0.5274" stroke-miterlimit="10" stroke-linecap="round"/>
<path d="M125.984 189.994V311.233" stroke="#888888" stroke-width="0.5274" stroke-miterlimit="10" stroke-linecap="round"/>
<path d="M185.043 182.37V345.091" stroke="#888888" stroke-width="0.5274" stroke-miterlimit="10" stroke-linecap="round"/>
<path d="M74.5443 170.036L46.2383 153.695" stroke="#888888" stroke-width="0.5274" stroke-miterlimit="10" stroke-linecap="round"/>
<path d="M46.238 153.696L32.0859 161.866" stroke="#888888" stroke-width="0.5274" stroke-miterlimit="10" stroke-linecap="round"/>
<path d="M46.2383 153.695V344.8" stroke="#888888" stroke-width="0.5274" stroke-miterlimit="10" stroke-linecap="round"/>
<path d="M74.543 170.037V206.973" stroke="#888888" stroke-width="0.5274" stroke-miterlimit="10" stroke-linecap="round"/>
<path d="M32.0859 161.866V344.801" stroke="#888888" stroke-width="0.5274" stroke-miterlimit="10" stroke-linecap="round"/>
<path d="M79.4026 204.166L56.4766 217.402" stroke="#888888" stroke-width="0.5274" stroke-miterlimit="10" stroke-linecap="round"/>
<path d="M125.984 231.057L79.4062 204.166" stroke="#888888" stroke-width="0.5274" stroke-miterlimit="10" stroke-linecap="round"/>
<path d="M79.4062 204.166V346.287" stroke="#888888" stroke-width="0.5274" stroke-miterlimit="10" stroke-linecap="round"/>
<path d="M125.984 225.044V346.283" stroke="#888888" stroke-width="0.5274" stroke-miterlimit="10" stroke-linecap="round"/>
<path d="M56.4766 217.402V346.287" stroke="#888888" stroke-width="0.5274" stroke-miterlimit="10" stroke-linecap="round"/>
<path d="M203.273 189.091L185.043 199.617" stroke="#888888" stroke-width="0.5274" stroke-miterlimit="10" stroke-linecap="round"/>
<path d="M239.405 209.952L203.273 189.091" stroke="#888888" stroke-width="0.5274" stroke-miterlimit="10" stroke-linecap="round"/>
<path d="M203.273 189.091V241.863" stroke="#888888" stroke-width="0.5274" stroke-miterlimit="10" stroke-linecap="round"/>
<path d="M239.402 209.952V231.852" stroke="#888888" stroke-width="0.5274" stroke-miterlimit="10" stroke-linecap="round"/>
<path d="M133.609 152.14L156.536 138.904" stroke="#888888" stroke-width="0.5274" stroke-miterlimit="10" stroke-linecap="round"/>
<path d="M74.5413 126.693L51.6133 139.931" stroke="#888888" stroke-width="0.5274" stroke-miterlimit="10" stroke-linecap="round"/>
<path d="M268.481 154.135L245.555 167.371" stroke="#888888" stroke-width="0.5274" stroke-miterlimit="10" stroke-linecap="round"/>
<path d="M366.912 129.564L343.984 142.801" stroke="#888888" stroke-width="0.5274" stroke-miterlimit="10" stroke-linecap="round"/>
<path d="M-22.4609 168.708L0.46566 181.946" stroke="#888888" stroke-width="0.5274" stroke-miterlimit="10" stroke-linecap="round"/>
<path d="M168.004 145.523L190.932 158.761" stroke="#888888" stroke-width="0.5274" stroke-miterlimit="10" stroke-linecap="round"/>
<path d="M484.457 194.524L507.384 207.761" stroke="#888888" stroke-width="0.5274" stroke-miterlimit="10" stroke-linecap="round"/>
<path d="M384.969 92.6641L407.895 105.901" stroke="#888888" stroke-width="0.5274" stroke-miterlimit="10" stroke-linecap="round"/>
<path d="M484.457 194.524V168.049" stroke="#888888" stroke-width="0.5274" stroke-miterlimit="10" stroke-linecap="round"/>
<path d="M433.906 120.916V94.4434" stroke="#888888" stroke-width="0.5274" stroke-miterlimit="10" stroke-linecap="round"/>
<path d="M74.5469 126.694V100.221" stroke="#888888" stroke-width="0.5274" stroke-miterlimit="10" stroke-linecap="round"/>
<path d="M168.004 145.524L168.005 119.051" stroke="#888888" stroke-width="0.5274" stroke-miterlimit="10" stroke-linecap="round"/>
<path d="M239.406 209.953V183.479" stroke="#888888" stroke-width="0.5274" stroke-miterlimit="10" stroke-linecap="round"/>
<path d="M285.617 144.241V117.767" stroke="#888888" stroke-width="0.5274" stroke-miterlimit="10" stroke-linecap="round"/>
<path d="M32.0898 161.866V135.393" stroke="#888888" stroke-width="0.5274" stroke-miterlimit="10" stroke-linecap="round"/>
<path d="M507.383 208.639C507.868 208.639 508.262 208.246 508.262 207.76C508.262 207.275 507.868 206.881 507.383 206.881C506.897 206.881 506.504 207.275 506.504 207.76C506.504 208.246 506.897 208.639 507.383 208.639Z" fill="#0B0B0B"/>
<path d="M484.457 168.928C484.943 168.928 485.336 168.535 485.336 168.049C485.336 167.564 484.943 167.17 484.457 167.17C483.972 167.17 483.578 167.564 483.578 168.049C483.578 168.535 483.972 168.928 484.457 168.928Z" fill="#0B0B0B"/>
<path d="M433.906 95.3225C434.392 95.3225 434.785 94.9289 434.785 94.4435C434.785 93.958 434.392 93.5645 433.906 93.5645C433.421 93.5645 433.027 93.958 433.027 94.4435C433.027 94.9289 433.421 95.3225 433.906 95.3225Z" fill="#0B0B0B"/>
<path d="M384.973 93.5432C385.458 93.5432 385.852 93.1496 385.852 92.6642C385.852 92.1787 385.458 91.7852 384.973 91.7852C384.487 91.7852 384.094 92.1787 384.094 92.6642C384.094 93.1496 384.487 93.5432 384.973 93.5432Z" fill="#0B0B0B"/>
<path d="M343.941 143.703C344.427 143.703 344.82 143.31 344.82 142.824C344.82 142.339 344.427 141.945 343.941 141.945C343.456 141.945 343.062 142.339 343.062 142.824C343.062 143.31 343.456 143.703 343.941 143.703Z" fill="#0B0B0B"/>
<path d="M285.617 118.647C286.103 118.647 286.496 118.254 286.496 117.768C286.496 117.283 286.103 116.889 285.617 116.889C285.132 116.889 284.738 117.283 284.738 117.768C284.738 118.254 285.132 118.647 285.617 118.647Z" fill="#0B0B0B"/>
<path d="M245.469 168.3C245.954 168.3 246.348 167.907 246.348 167.421C246.348 166.936 245.954 166.542 245.469 166.542C244.983 166.542 244.59 166.936 244.59 167.421C244.59 167.907 244.983 168.3 245.469 168.3Z" fill="#0B0B0B"/>
<path d="M190.981 159.671C191.466 159.671 191.86 159.277 191.86 158.792C191.86 158.306 191.466 157.913 190.981 157.913C190.495 157.913 190.102 158.306 190.102 158.792C190.102 159.277 190.495 159.671 190.981 159.671Z" fill="#0B0B0B"/>
<path d="M168 119.93C168.486 119.93 168.879 119.536 168.879 119.051C168.879 118.565 168.486 118.172 168 118.172C167.515 118.172 167.121 118.565 167.121 119.051C167.121 119.536 167.515 119.93 168 119.93Z" fill="#0B0B0B"/>
<path d="M74.5431 101.1C75.0281 101.1 75.4221 100.706 75.4221 100.221C75.4221 99.7353 75.0281 99.3418 74.5431 99.3418C74.0581 99.3418 73.6641 99.7353 73.6641 100.221C73.6641 100.706 74.0581 101.1 74.5431 101.1Z" fill="#0B0B0B"/>
<path d="M51.547 140.851C52.032 140.851 52.426 140.458 52.426 139.972C52.426 139.487 52.032 139.093 51.547 139.093C51.062 139.093 50.668 139.487 50.668 139.972C50.668 140.458 51.062 140.851 51.547 140.851Z" fill="#0B0B0B"/>
<path d="M32.086 136.272C32.5715 136.272 32.965 135.878 32.965 135.393C32.965 134.907 32.5715 134.514 32.086 134.514C31.6006 134.514 31.207 134.907 31.207 135.393C31.207 135.878 31.6006 136.272 32.086 136.272Z" fill="#0B0B0B"/>
<path d="M239.402 184.358C239.888 184.358 240.281 183.964 240.281 183.479C240.281 182.993 239.888 182.6 239.402 182.6C238.917 182.6 238.523 182.993 238.523 183.479C238.523 183.964 238.917 184.358 239.402 184.358Z" fill="#0B0B0B"/>
</g>
</svg>
