<svg width="820" height="1180" viewBox="0 0 820 1180" fill="none" xmlns="http://www.w3.org/2000/svg">
<path d="M859.323 1180H-33.7114V-0.000244141H859.323V1180ZM161.932 520.678C153.333 520.679 145.726 522.464 139.111 526.032C132.578 529.601 127.41 534.573 123.606 540.951C119.885 547.329 118.025 554.77 118.025 563.273C118.025 571.929 119.844 579.331 123.482 585.481C127.12 591.631 132.206 596.339 138.739 599.604C143.821 602.113 149.539 603.655 155.89 604.236C153.648 605.048 151.445 605.896 149.281 606.779C147.131 607.766 144.526 608.639 141.467 609.398C138.077 608.335 134.935 607.803 132.041 607.803C127.493 607.803 125.219 608.829 125.219 610.879C125.219 611.942 125.757 612.701 126.832 613.157C127.989 613.612 129.395 613.84 131.048 613.84C132.702 613.84 134.438 613.612 136.257 613.157C138.159 612.701 139.896 612.131 141.467 611.448C141.798 611.448 142.212 611.525 142.708 611.677C143.286 611.904 143.865 612.094 144.444 612.246C149.405 613.992 154.118 615.776 158.583 617.598C163.049 619.497 167.431 621.091 171.731 622.382C176.113 623.672 180.579 624.318 185.126 624.318C188.517 624.318 191.576 623.9 194.305 623.065C197.116 622.23 199.39 621.166 201.126 619.876C203.359 618.205 205.179 615.852 206.584 612.815C207.99 609.854 209.024 606.285 209.685 602.109L207.453 601.54C205.468 604.577 202.987 606.854 200.01 608.373C197.033 609.891 192.982 610.917 187.855 611.448C184.382 611.904 180.496 612.056 176.196 611.904C171.896 611.828 167.224 611.562 162.18 611.106C157.136 610.727 151.679 610.347 145.808 609.968C148.371 609.284 150.605 608.563 152.506 607.803C154.408 607.044 156.268 606.324 158.087 605.64C159.831 605.084 161.887 604.688 164.255 604.45C171.781 604.138 178.532 602.371 184.506 599.148C191.204 595.58 196.413 590.607 200.134 584.229C203.855 577.852 205.716 570.411 205.716 561.907C205.716 553.175 203.897 545.772 200.258 539.698C196.62 533.548 191.493 528.841 184.878 525.576C178.346 522.311 170.697 520.678 161.932 520.678ZM464.481 513.845C461.918 514.377 459.106 514.795 456.046 515.098C452.987 515.326 449.762 515.44 446.372 515.44C443.891 515.44 441.328 515.326 438.682 515.098V517.49C441.741 517.49 443.808 518.326 444.883 519.996C446.041 521.59 446.62 524.096 446.62 527.512V597.326C446.62 598.389 446.537 599.452 446.372 600.515C446.289 601.578 446.082 602.641 445.751 603.704L447.612 604.729C448.852 603.742 450.383 602.907 452.202 602.223C454.021 601.464 456.005 600.932 458.155 600.629C460.025 600.365 461.863 600.33 463.67 600.525C465.014 601.526 466.483 602.321 468.078 602.907C470.972 603.97 474.114 604.501 477.504 604.501C482.631 604.501 487.344 603.438 491.644 601.312C495.944 599.186 499.375 595.731 501.938 590.948C504.584 586.165 505.908 579.825 505.908 571.928C505.908 561.906 503.757 554.504 499.458 549.72C495.24 544.861 489.907 542.431 483.458 542.431C478.744 542.431 474.61 543.571 471.054 545.848C468.194 547.619 466.003 550.078 464.481 553.224V513.845ZM269.588 542.773C267.025 543.305 264.214 543.722 261.155 544.026C258.178 544.254 254.953 544.368 251.48 544.368C248.999 544.368 246.436 544.254 243.79 544.026V546.418C246.849 546.418 248.917 547.253 249.992 548.924C251.149 550.518 251.728 553.024 251.728 556.44V586.279C251.728 588.784 251.149 591.062 249.992 593.112C248.917 595.086 247.47 596.643 245.651 597.782C243.914 598.921 241.929 599.49 239.697 599.49C237.63 599.49 236.059 599.11 234.984 598.351C233.909 597.516 233.165 596.377 232.751 594.934C232.421 593.492 232.255 591.822 232.255 589.924V542.773C229.692 543.305 226.88 543.722 223.821 544.026C220.844 544.254 217.619 544.368 214.146 544.368C211.666 544.368 209.102 544.254 206.457 544.026V546.418C209.516 546.418 211.583 547.253 212.658 548.924C213.815 550.518 214.394 553.024 214.394 556.44V585.254C214.394 588.974 214.683 592.011 215.262 594.365C215.841 596.719 216.833 598.617 218.239 600.059C219.479 601.35 221.175 602.413 223.325 603.248C225.475 604.083 228.286 604.501 231.759 604.501C236.059 604.501 239.945 603.703 243.417 602.109C246.973 600.439 249.743 597.705 251.728 593.909V604.159C254.374 603.552 257.186 603.135 260.163 602.907C263.139 602.679 266.364 602.565 269.836 602.565C272.4 602.565 274.964 602.679 277.527 602.907V600.515C274.55 600.515 272.482 599.717 271.325 598.123C270.167 596.452 269.588 593.909 269.588 590.493V542.773ZM693.469 525.348C690.906 526.639 688.136 527.588 685.16 528.195C682.266 528.727 679.082 528.993 675.609 528.993V544.026H665.19V546.303H675.609V584.799C675.609 588.747 675.898 591.974 676.477 594.479C677.056 596.909 678.255 598.958 680.074 600.629C681.479 601.919 683.216 602.869 685.284 603.476C687.351 604.16 689.749 604.501 692.477 604.501C697.108 604.501 700.746 603.4 703.392 601.198C706.121 598.996 708.147 596.187 709.47 592.77L707.361 591.746C706.203 594.251 704.88 596.036 703.392 597.098C701.904 598.085 700.416 598.579 698.927 598.579C697.108 598.579 695.744 598.123 694.834 597.212C693.925 596.225 693.469 594.593 693.469 592.315V546.303H708.106V544.026H693.469V525.348ZM417.19 542.431C412.973 542.431 409.004 543.229 405.283 544.823C401.72 546.385 398.831 549.367 396.616 553.768C396.535 553.347 396.449 552.947 396.353 552.568C395.774 550.214 394.823 548.315 393.5 546.873C392.177 545.506 390.44 544.444 388.291 543.684C386.141 542.849 383.33 542.431 379.857 542.431C375.805 542.431 372.084 543.267 368.694 544.937C365.304 546.532 362.616 549.227 360.631 553.023V542.773C358.068 543.305 355.256 543.722 352.197 544.026C349.22 544.254 345.996 544.368 342.523 544.368C340.042 544.368 337.479 544.254 334.833 544.026V546.418C337.892 546.418 339.96 547.253 341.035 548.924C342.192 550.518 342.771 553.024 342.771 556.44V592.315C342.771 595.504 342.151 597.667 340.911 598.806C339.932 599.77 338.331 600.323 336.11 600.471C336.588 600.164 337.049 599.837 337.49 599.49L336.25 597.553C335.423 598.085 334.637 598.541 333.893 598.921C333.232 599.3 332.529 599.49 331.785 599.49C330.792 599.49 330.089 599.148 329.675 598.465C329.262 597.705 329.055 596.377 329.055 594.479V563.501C329.055 559.629 328.766 556.44 328.187 553.934C327.608 551.353 326.368 549.189 324.466 547.443C322.399 545.545 319.835 544.253 316.776 543.57C313.717 542.811 310.285 542.431 306.482 542.431C302.678 542.431 299.122 542.773 295.815 543.457C292.59 544.14 289.82 545.089 287.504 546.303C285.354 547.594 283.66 548.961 282.419 550.404C281.262 551.847 280.683 553.669 280.683 555.871C280.683 558.3 281.427 560.388 282.916 562.135C284.487 563.805 286.76 564.64 289.737 564.64C292.383 564.64 294.657 563.881 296.559 562.362C298.544 560.844 299.536 558.793 299.536 556.212C299.536 554.238 298.874 552.492 297.551 550.973C296.311 549.379 294.533 548.202 292.218 547.443C293.293 546.456 294.657 545.772 296.311 545.392C297.965 544.937 299.618 544.71 301.272 544.71C303.587 544.71 305.448 545.126 306.854 545.962C308.342 546.797 309.417 548.012 310.079 549.606C310.823 551.125 311.195 552.871 311.195 554.845V563.729C311.195 565.475 310.368 566.918 308.714 568.056C307.143 569.119 305.034 570.069 302.388 570.904C299.825 571.663 297.097 572.461 294.203 573.296C291.391 574.131 288.703 575.193 286.14 576.484C283.577 577.775 281.469 579.446 279.815 581.496C278.244 583.546 277.458 586.203 277.458 589.468C277.458 592.049 278.037 594.44 279.195 596.642C280.352 598.768 282.171 600.477 284.652 601.767C287.133 603.058 290.234 603.704 293.955 603.704C298.006 603.704 301.437 602.906 304.249 601.312C307.06 599.642 309.458 597.364 311.443 594.479C311.443 596.301 311.815 597.896 312.559 599.262C313.386 600.629 314.709 601.73 316.528 602.565C318.347 603.324 320.787 603.704 323.846 603.704C326.657 603.704 329.179 603.362 331.412 602.678C332.633 602.278 333.773 601.792 334.833 601.222V602.907C336.486 602.831 338.967 602.754 342.275 602.678C345.582 602.527 348.807 602.451 351.949 602.451C354.843 602.451 357.655 602.527 360.383 602.678C363.195 602.754 365.262 602.831 366.585 602.907V600.515C364.436 600.515 362.905 599.945 361.996 598.806C361.086 597.667 360.631 595.504 360.631 592.315V560.654C360.631 558.148 361.169 555.908 362.244 553.934C363.401 551.884 364.89 550.29 366.709 549.151C368.529 548.012 370.513 547.443 372.663 547.443C374.564 547.443 375.97 547.86 376.879 548.695C377.872 549.454 378.533 550.555 378.864 551.998C379.195 553.364 379.36 554.997 379.36 556.895V592.315C379.36 595.504 378.905 597.668 377.996 598.806C377.169 599.945 375.639 600.515 373.407 600.515V602.907C374.895 602.831 377.087 602.754 379.981 602.678C382.875 602.527 385.81 602.451 388.787 602.451C391.681 602.451 394.616 602.527 397.593 602.678C400.652 602.754 402.926 602.831 404.415 602.907V600.515C401.769 600.515 399.908 599.945 398.833 598.806C397.759 597.668 397.221 595.504 397.221 592.315V561.678C397.221 560.988 397.207 560.323 397.188 559.682C397.401 557.688 397.949 555.848 398.833 554.162C399.991 552.112 401.479 550.48 403.298 549.265C405.117 548.051 407.103 547.443 409.252 547.443C411.402 547.443 412.973 547.86 413.965 548.695C415.04 549.454 415.743 550.555 416.074 551.998C416.487 553.364 416.694 554.997 416.694 556.895V592.315C416.694 595.504 416.239 597.668 415.33 598.806C414.503 599.945 412.973 600.515 410.741 600.515V602.907C412.229 602.831 414.42 602.754 417.314 602.678C420.208 602.527 423.144 602.451 426.121 602.451C429.18 602.451 432.281 602.527 435.423 602.678C438.565 602.754 440.922 602.831 442.493 602.907V600.515C439.599 600.515 437.532 599.945 436.292 598.806C435.134 597.668 434.555 595.504 434.555 592.315V561.678C434.555 557.883 434.266 554.846 433.687 552.568C433.108 550.214 432.156 548.315 430.833 546.873C429.511 545.506 427.774 544.444 425.625 543.684C423.475 542.849 420.663 542.431 417.19 542.431ZM644.445 542.431C640.062 542.431 636.093 543.229 632.538 544.823C628.982 546.417 626.17 549.151 624.103 553.023V542.773C621.54 543.305 618.729 543.722 615.669 544.026C612.693 544.254 609.468 544.368 605.995 544.368C603.514 544.368 600.951 544.254 598.305 544.026V546.418C601.364 546.418 603.431 547.253 604.506 548.924C605.664 550.518 606.243 553.024 606.243 556.44V592.315C606.243 595.504 605.623 597.668 604.382 598.806C603.403 599.77 601.803 600.323 599.582 600.471C600.06 600.164 600.52 599.837 600.961 599.49L599.721 597.553C598.894 598.085 598.109 598.541 597.365 598.921C596.703 599.3 596 599.49 595.256 599.49C594.264 599.49 593.561 599.148 593.148 598.465C592.735 597.705 592.528 596.377 592.528 594.479V563.501C592.528 559.629 592.238 556.44 591.66 553.934C591.081 551.353 589.84 549.189 587.938 547.443C585.871 545.545 583.308 544.253 580.249 543.57C577.189 542.811 573.757 542.431 569.954 542.431C566.15 542.431 562.594 542.773 559.287 543.457C556.062 544.14 553.292 545.089 550.977 546.303C548.827 547.594 547.131 548.961 545.891 550.404C544.734 551.847 544.155 553.669 544.155 555.871C544.155 558.3 544.899 560.388 546.387 562.135C547.958 563.805 550.233 564.64 553.209 564.64C555.855 564.64 558.129 563.88 560.031 562.362C562.015 560.844 563.008 558.793 563.008 556.212C563.008 554.238 562.346 552.492 561.023 550.973C559.783 549.379 558.005 548.202 555.69 547.443C556.765 546.456 558.129 545.772 559.783 545.392C561.436 544.937 563.091 544.71 564.745 544.71C567.06 544.71 568.92 545.127 570.326 545.962C571.814 546.797 572.889 548.012 573.55 549.606C574.294 551.125 574.667 552.871 574.667 554.845V563.729C574.666 565.475 573.84 566.918 572.186 568.056C570.615 569.119 568.507 570.069 565.861 570.904C563.297 571.663 560.568 572.46 557.674 573.296C554.863 574.131 552.176 575.194 549.613 576.484C547.049 577.775 544.94 579.446 543.287 581.496C541.716 583.546 540.93 586.203 540.93 589.468C540.93 592.049 541.509 594.441 542.667 596.642C543.824 598.768 545.643 600.477 548.124 601.767C550.604 603.058 553.705 603.704 557.426 603.704C561.478 603.704 564.91 602.907 567.721 601.312C570.532 599.642 572.93 597.364 574.915 594.479C574.915 596.301 575.287 597.896 576.031 599.262C576.858 600.629 578.181 601.73 580 602.565C581.82 603.324 584.259 603.704 587.318 603.704C590.129 603.704 592.652 603.362 594.884 602.678C596.105 602.278 597.245 601.792 598.305 601.222V602.907C599.959 602.831 602.439 602.754 605.747 602.678C609.054 602.527 612.279 602.451 615.421 602.451C618.481 602.451 621.417 602.527 624.228 602.678C627.122 602.754 629.313 602.831 630.801 602.907V600.515C628.403 600.515 626.667 599.945 625.592 598.806C624.6 597.668 624.103 595.504 624.103 592.315V560.654C624.103 558.148 624.641 555.908 625.716 553.934C626.874 551.884 628.362 550.29 630.181 549.151C632.083 548.012 634.15 547.443 636.382 547.443C638.532 547.443 640.145 547.86 641.22 548.695C642.295 549.454 643.039 550.555 643.453 551.998C643.866 553.364 644.073 554.997 644.073 556.895V592.315C644.073 595.504 643.577 597.667 642.584 598.806C641.592 599.945 639.855 600.515 637.375 600.515V602.907C638.946 602.831 641.22 602.754 644.197 602.678C647.256 602.527 650.357 602.451 653.5 602.451C656.559 602.451 659.659 602.527 662.801 602.678C665.943 602.754 668.3 602.831 669.872 602.907V600.515C666.977 600.515 664.91 599.945 663.669 598.806C662.512 597.667 661.933 595.504 661.933 592.315V561.678C661.933 557.806 661.602 554.732 660.941 552.454C660.362 550.176 659.411 548.315 658.088 546.873C656.848 545.506 655.112 544.444 652.879 543.684C650.729 542.849 647.918 542.431 644.445 542.431ZM533.187 542.773C530.624 543.305 527.812 543.722 524.752 544.026C521.776 544.254 518.55 544.368 515.078 544.368C512.597 544.368 510.034 544.254 507.388 544.026V546.418C510.448 546.418 512.514 547.253 513.589 548.924C514.747 550.518 515.326 553.024 515.326 556.44V592.315C515.326 595.504 514.706 597.668 513.465 598.806C512.308 599.945 510.282 600.515 507.388 600.515V602.907C509.042 602.831 511.522 602.754 514.83 602.678C518.137 602.527 521.404 602.451 524.628 602.451C527.853 602.451 531.037 602.527 534.179 602.678C537.321 602.754 539.636 602.831 541.125 602.907V600.515C538.231 600.515 536.164 599.945 534.923 598.806C533.766 597.668 533.187 595.504 533.187 592.315V542.773ZM161.436 522.729C165.818 522.729 169.788 524.361 173.343 527.626C176.982 530.815 179.835 535.37 181.902 541.293C184.052 547.215 185.126 554.238 185.126 562.362C185.126 570.182 184.176 577.13 182.274 583.204C180.455 589.202 177.808 593.909 174.335 597.326C170.945 600.743 166.935 602.451 162.304 602.451C157.922 602.451 153.911 600.857 150.273 597.668C146.718 594.403 143.865 589.809 141.715 583.887C139.648 577.889 138.615 570.866 138.615 562.818C138.615 554.922 139.524 547.974 141.343 541.976C143.245 535.978 145.891 531.271 149.281 527.854C152.754 524.438 156.806 522.729 161.436 522.729ZM476.139 547.329C478.454 547.329 480.44 548.164 482.093 549.835C483.747 551.429 484.987 554.162 485.814 558.034C486.724 561.83 487.178 566.994 487.178 573.523C487.178 583.166 486.062 590.341 483.83 595.049C481.597 599.756 478.206 602.109 473.659 602.109C471.674 602.109 469.649 601.691 467.582 600.856C466.47 600.388 465.437 599.789 464.481 599.059V557.198C465.094 554.479 466.332 552.289 468.202 550.632C470.599 548.43 473.245 547.329 476.139 547.329ZM311.195 591.746C309.955 593.416 308.632 594.631 307.226 595.39C305.903 596.074 304.414 596.415 302.76 596.415C300.445 596.415 298.585 595.693 297.179 594.251C295.774 592.808 295.071 590.606 295.071 587.645C295.071 585.292 295.484 583.279 296.311 581.609C297.138 579.939 298.213 578.534 299.536 577.395C300.941 576.256 302.388 575.231 303.876 574.32C305.365 573.333 306.771 572.385 308.094 571.473C309.417 570.562 310.451 569.537 311.195 568.398V591.746ZM574.667 591.746C573.426 593.416 572.103 594.631 570.698 595.39C569.375 596.074 567.886 596.415 566.233 596.415C563.918 596.415 562.057 595.693 560.651 594.251C559.245 592.808 558.542 590.606 558.542 587.645C558.542 585.292 558.956 583.279 559.783 581.609C560.61 579.939 561.685 578.534 563.008 577.395C564.414 576.257 565.861 575.231 567.349 574.32C568.837 573.333 570.243 572.384 571.566 571.473C572.889 570.562 573.922 569.537 574.667 568.398V591.746ZM523.512 514.642C520.039 514.642 517.269 515.44 515.202 517.034C513.217 518.552 512.225 520.679 512.225 523.412C512.225 526.145 513.217 528.31 515.202 529.904C517.269 531.423 520.039 532.181 523.512 532.181C526.985 532.181 529.714 531.423 531.699 529.904C533.766 528.31 534.799 526.145 534.799 523.412C534.799 520.679 533.766 518.552 531.699 517.034C529.714 515.44 526.985 514.642 523.512 514.642Z" fill="#071317"/>
</svg>
