<svg width="1440" height="800" viewBox="0 0 1440 800" fill="none" xmlns="http://www.w3.org/2000/svg">
<path d="M1440 800H0V0H1440V800ZM318.697 338.6C304.831 338.6 292.563 341.733 281.896 348C271.363 354.267 263.03 363 256.896 374.2C250.897 385.4 247.896 398.467 247.896 413.4C247.897 428.6 250.831 441.6 256.697 452.4C262.564 463.2 270.764 471.467 281.297 477.2C289.492 481.605 298.711 484.315 308.952 485.336C305.338 486.761 301.786 488.249 298.297 489.8C294.83 491.533 290.63 493.067 285.697 494.4C280.231 492.534 275.164 491.6 270.497 491.6C263.164 491.6 259.497 493.4 259.497 497C259.497 498.867 260.363 500.2 262.097 501C263.963 501.8 266.23 502.2 268.896 502.2C271.563 502.2 274.364 501.8 277.297 501C280.364 500.2 283.164 499.2 285.697 498C286.231 498 286.897 498.134 287.697 498.4C288.63 498.8 289.564 499.134 290.497 499.4C298.497 502.467 306.097 505.6 313.297 508.8C320.497 512.133 327.564 514.934 334.497 517.2C341.564 519.467 348.763 520.6 356.097 520.6C361.563 520.6 366.497 519.867 370.896 518.4C375.43 516.934 379.096 515.066 381.896 512.8C385.496 509.867 388.431 505.734 390.697 500.4C392.964 495.2 394.631 488.933 395.697 481.6L392.097 480.6C388.897 485.933 384.897 489.933 380.097 492.6C375.297 495.266 368.764 497.067 360.497 498C354.897 498.8 348.63 499.066 341.697 498.8C334.764 498.666 327.23 498.2 319.097 497.4C310.964 496.734 302.164 496.067 292.697 495.4C296.831 494.2 300.43 492.933 303.497 491.6C306.564 490.266 309.564 489 312.497 487.8C315.293 486.827 318.589 486.132 322.383 485.714C334.542 485.173 345.447 482.07 355.097 476.4C365.897 470.134 374.297 461.4 380.297 450.2C386.297 439 389.297 425.933 389.297 411C389.297 395.667 386.364 382.667 380.497 372C374.63 361.2 366.364 352.934 355.697 347.2C345.164 341.467 332.83 338.6 318.697 338.6ZM806.55 326.6C802.417 327.533 797.883 328.266 792.95 328.8C788.017 329.2 782.816 329.4 777.35 329.4C773.35 329.4 769.217 329.2 764.95 328.8V333C769.883 333 773.217 334.467 774.95 337.4C776.817 340.2 777.75 344.6 777.75 350.6V473.2C777.75 475.067 777.616 476.933 777.35 478.8C777.216 480.666 776.883 482.534 776.35 484.4L779.35 486.2C781.35 484.467 783.817 483 786.75 481.8C789.683 480.467 792.883 479.533 796.35 479C799.364 478.536 802.328 478.476 805.241 478.818C807.408 480.576 809.777 481.971 812.35 483C817.016 484.867 822.083 485.8 827.55 485.8C835.816 485.8 843.416 483.933 850.35 480.2C857.283 476.467 862.817 470.4 866.95 462C871.217 453.6 873.35 442.466 873.35 428.6C873.35 411 869.883 398 862.95 389.6C856.15 381.066 847.55 376.8 837.15 376.8C829.551 376.8 822.884 378.8 817.15 382.8C812.538 385.91 809.005 390.23 806.55 395.757V326.6ZM492.291 377.4C488.158 378.334 483.624 379.066 478.69 379.6C473.891 380 468.691 380.2 463.091 380.2C459.091 380.2 454.957 380 450.69 379.6V383.8C455.624 383.8 458.957 385.267 460.69 388.2C462.557 391 463.49 395.4 463.49 401.4V453.8C463.49 458.2 462.557 462.2 460.69 465.8C458.957 469.266 456.624 472 453.69 474C450.891 476 447.691 477 444.091 477C440.757 477 438.224 476.333 436.49 475C434.757 473.533 433.557 471.533 432.891 469C432.357 466.467 432.091 463.533 432.091 460.2V377.4C427.957 378.334 423.424 379.066 418.49 379.6C413.69 380 408.49 380.2 402.891 380.2C398.891 380.2 394.757 380 390.49 379.6V383.8C395.424 383.8 398.757 385.267 400.49 388.2C402.357 391 403.291 395.4 403.291 401.4V452C403.291 458.533 403.757 463.867 404.69 468C405.624 472.133 407.224 475.467 409.49 478C411.49 480.267 414.224 482.133 417.69 483.6C421.157 485.066 425.691 485.8 431.291 485.8C438.224 485.8 444.491 484.4 450.091 481.6C455.824 478.666 460.29 473.867 463.49 467.2V485.2C467.757 484.134 472.291 483.4 477.091 483C481.891 482.6 487.091 482.4 492.69 482.4C496.824 482.4 500.957 482.6 505.091 483V478.8C500.291 478.8 496.957 477.4 495.091 474.6C493.224 471.666 492.291 467.2 492.291 461.2V377.4ZM1175.79 346.8C1171.66 349.066 1167.19 350.733 1162.39 351.8C1157.72 352.733 1152.59 353.2 1146.99 353.2V379.6H1130.19V383.6H1146.99V451.2C1146.99 458.133 1147.46 463.8 1148.39 468.2C1149.32 472.467 1151.26 476.067 1154.19 479C1156.46 481.267 1159.26 482.933 1162.59 484C1165.92 485.2 1169.79 485.8 1174.19 485.8C1181.66 485.8 1187.52 483.867 1191.79 480C1196.19 476.133 1199.46 471.2 1201.59 465.2L1198.19 463.4C1196.32 467.8 1194.19 470.933 1191.79 472.8C1189.39 474.533 1186.99 475.4 1184.59 475.4C1181.66 475.4 1179.46 474.6 1177.99 473C1176.52 471.267 1175.79 468.4 1175.79 464.4V383.6H1199.39V379.6H1175.79V346.8ZM730.295 376.8C723.495 376.8 717.096 378.2 711.096 381C705.35 383.742 700.692 388.979 697.12 396.709C696.991 395.969 696.851 395.266 696.695 394.6C695.762 390.466 694.229 387.133 692.096 384.6C689.962 382.2 687.162 380.333 683.695 379C680.229 377.533 675.696 376.8 670.096 376.8C663.562 376.8 657.562 378.267 652.096 381.2C646.629 384 642.296 388.734 639.096 395.4V377.4C634.962 378.334 630.428 379.066 625.495 379.6C620.695 380 615.495 380.2 609.896 380.2C605.896 380.2 601.762 380 597.495 379.6V383.8C602.428 383.8 605.762 385.267 607.495 388.2C609.362 391 610.295 395.4 610.295 401.4V464.4C610.295 470 609.295 473.8 607.295 475.8C605.716 477.491 603.136 478.464 599.555 478.725C600.326 478.184 601.068 477.61 601.779 477L599.779 473.6C598.446 474.533 597.179 475.333 595.979 476C594.913 476.667 593.78 477 592.58 477C590.98 477 589.846 476.4 589.18 475.2C588.513 473.867 588.18 471.533 588.18 468.2V413.8C588.18 407 587.713 401.4 586.779 397C585.846 392.467 583.846 388.666 580.779 385.6C577.446 382.267 573.313 380 568.38 378.8C563.447 377.466 557.913 376.8 551.779 376.8C545.646 376.8 539.913 377.4 534.58 378.6C529.38 379.8 524.913 381.466 521.18 383.6C517.713 385.866 514.979 388.266 512.979 390.8C511.113 393.333 510.18 396.534 510.18 400.4C510.18 404.667 511.379 408.334 513.779 411.4C516.313 414.334 519.979 415.8 524.779 415.8C529.046 415.8 532.713 414.466 535.779 411.8C538.979 409.133 540.58 405.533 540.58 401C540.58 397.533 539.513 394.466 537.38 391.8C535.38 389 532.513 386.933 528.779 385.6C530.513 383.866 532.713 382.667 535.38 382C538.047 381.2 540.713 380.8 543.38 380.8C547.113 380.8 550.113 381.533 552.38 383C554.78 384.467 556.513 386.6 557.58 389.4C558.78 392.067 559.38 395.133 559.38 398.6V414.2C559.38 417.267 558.046 419.8 555.38 421.8C552.847 423.666 549.446 425.333 545.18 426.8C541.046 428.133 536.646 429.533 531.979 431C527.446 432.467 523.113 434.333 518.979 436.6C514.846 438.866 511.446 441.8 508.779 445.4C506.246 449 504.979 453.667 504.979 459.4C504.98 463.934 505.913 468.133 507.779 472C509.646 475.733 512.58 478.733 516.58 481C520.58 483.267 525.58 484.4 531.58 484.4C538.113 484.4 543.646 483 548.18 480.2C552.713 477.267 556.579 473.267 559.779 468.2C559.779 471.4 560.38 474.2 561.58 476.6C562.913 479 565.046 480.934 567.979 482.4C570.913 483.734 574.846 484.4 579.779 484.4C584.313 484.4 588.38 483.8 591.979 482.6C593.948 481.897 595.786 481.044 597.495 480.044V483C600.162 482.867 604.162 482.733 609.495 482.6C614.828 482.333 620.029 482.2 625.096 482.2C629.762 482.2 634.295 482.333 638.695 482.6C643.229 482.733 646.562 482.867 648.695 483V478.8C645.229 478.8 642.762 477.8 641.295 475.8C639.828 473.8 639.096 470 639.096 464.4V408.8C639.096 404.4 639.962 400.467 641.695 397C643.562 393.4 645.962 390.6 648.896 388.6C651.829 386.6 655.029 385.6 658.495 385.6C661.562 385.6 663.828 386.333 665.295 387.8C666.895 389.133 667.962 391.066 668.495 393.6C669.028 396 669.295 398.867 669.295 402.2V464.4C669.295 470 668.562 473.8 667.096 475.8C665.762 477.8 663.295 478.8 659.695 478.8V483C662.095 482.867 665.628 482.733 670.295 482.6C674.962 482.333 679.695 482.2 684.495 482.2C689.162 482.2 693.895 482.333 698.695 482.6C703.629 482.733 707.295 482.867 709.695 483V478.8C705.429 478.8 702.429 477.8 700.695 475.8C698.962 473.8 698.096 470 698.096 464.4V410.6C698.096 409.371 698.079 408.187 698.047 407.049C698.393 403.564 699.276 400.348 700.695 397.4C702.562 393.8 704.962 390.933 707.896 388.8C710.829 386.667 714.029 385.6 717.495 385.6C720.962 385.6 723.496 386.333 725.096 387.8C726.829 389.133 727.962 391.067 728.495 393.6C729.162 396 729.495 398.867 729.495 402.2V464.4C729.495 470 728.762 473.8 727.295 475.8C725.962 477.8 723.495 478.8 719.896 478.8V483C722.295 482.867 725.829 482.733 730.495 482.6C735.162 482.333 739.895 482.2 744.695 482.2C749.629 482.2 754.629 482.333 759.695 482.6C764.762 482.733 768.562 482.867 771.096 483V478.8C766.429 478.8 763.096 477.8 761.096 475.8C759.229 473.8 758.295 470 758.295 464.4V410.6C758.295 403.933 757.829 398.6 756.896 394.6C755.962 390.466 754.428 387.133 752.295 384.6C750.162 382.2 747.362 380.333 743.896 379C740.429 377.533 735.895 376.8 730.295 376.8ZM1096.74 376.8C1089.67 376.8 1083.27 378.2 1077.54 381C1071.81 383.8 1067.27 388.6 1063.94 395.4V377.4C1059.81 378.334 1055.27 379.066 1050.34 379.6C1045.54 380 1040.34 380.2 1034.74 380.2C1030.74 380.2 1026.61 380 1022.34 379.6V383.8C1027.27 383.8 1030.61 385.267 1032.34 388.2C1034.21 391 1035.14 395.4 1035.14 401.4V464.4C1035.14 470 1034.14 473.8 1032.14 475.8C1030.56 477.491 1027.98 478.464 1024.4 478.725C1025.17 478.184 1025.91 477.61 1026.62 477L1024.62 473.6C1023.29 474.533 1022.02 475.333 1020.82 476C1019.76 476.667 1018.62 477 1017.42 477C1015.82 477 1014.69 476.4 1014.02 475.2C1013.36 473.867 1013.02 471.533 1013.02 468.2V413.8C1013.02 407 1012.56 401.4 1011.62 397C1010.69 392.467 1008.69 388.666 1005.62 385.6C1002.29 382.267 998.157 380 993.224 378.8C988.29 377.466 982.756 376.8 976.623 376.8C970.49 376.8 964.757 377.4 959.424 378.6C954.224 379.8 949.757 381.466 946.023 383.6C942.557 385.866 939.823 388.266 937.823 390.8C935.957 393.333 935.023 396.534 935.023 400.4C935.023 404.667 936.223 408.334 938.623 411.4C941.156 414.334 944.823 415.8 949.623 415.8C953.89 415.8 957.556 414.466 960.623 411.8C963.823 409.133 965.424 405.533 965.424 401C965.424 397.533 964.357 394.466 962.224 391.8C960.224 389 957.356 386.933 953.623 385.6C955.356 383.866 957.557 382.667 960.224 382C962.89 381.2 965.557 380.8 968.224 380.8C971.957 380.8 974.957 381.533 977.224 383C979.624 384.467 981.357 386.6 982.424 389.4C983.624 392.067 984.224 395.133 984.224 398.6V414.2C984.224 417.267 982.89 419.8 980.224 421.8C977.69 423.666 974.29 425.333 970.023 426.8C965.89 428.133 961.49 429.533 956.823 431C952.29 432.467 947.957 434.333 943.823 436.6C939.69 438.866 936.29 441.8 933.623 445.4C931.09 449 929.823 453.667 929.823 459.4C929.823 463.934 930.756 468.133 932.623 472C934.49 475.733 937.424 478.733 941.424 481C945.424 483.267 950.424 484.4 956.424 484.4C962.957 484.4 968.49 483 973.023 480.2C977.557 477.267 981.423 473.267 984.623 468.2C984.623 471.4 985.224 474.2 986.424 476.6C987.757 479 989.89 480.934 992.823 482.4C995.756 483.734 999.69 484.4 1004.62 484.4C1009.16 484.4 1013.22 483.8 1016.82 482.6C1018.79 481.897 1020.63 481.044 1022.34 480.044V483C1025.01 482.867 1029.01 482.733 1034.34 482.6C1039.67 482.333 1044.87 482.2 1049.94 482.2C1054.87 482.2 1059.61 482.333 1064.14 482.6C1068.81 482.733 1072.34 482.867 1074.74 483V478.8C1070.87 478.8 1068.07 477.8 1066.34 475.8C1064.74 473.8 1063.94 470 1063.94 464.4V408.8C1063.94 404.4 1064.81 400.467 1066.54 397C1068.41 393.4 1070.81 390.6 1073.74 388.6C1076.81 386.6 1080.14 385.6 1083.74 385.6C1087.21 385.6 1089.81 386.333 1091.54 387.8C1093.27 389.133 1094.47 391.066 1095.14 393.6C1095.81 396 1096.14 398.867 1096.14 402.2V464.4C1096.14 470 1095.34 473.8 1093.74 475.8C1092.14 477.8 1089.34 478.8 1085.34 478.8V483C1087.87 482.867 1091.54 482.733 1096.34 482.6C1101.27 482.333 1106.27 482.2 1111.34 482.2C1116.27 482.2 1121.27 482.333 1126.34 482.6C1131.41 482.733 1135.21 482.867 1137.74 483V478.8C1133.07 478.8 1129.74 477.8 1127.74 475.8C1125.87 473.8 1124.94 470 1124.94 464.4V410.6C1124.94 403.8 1124.41 398.4 1123.34 394.4C1122.41 390.4 1120.87 387.133 1118.74 384.6C1116.74 382.2 1113.94 380.333 1110.34 379C1106.87 377.533 1102.34 376.8 1096.74 376.8ZM917.338 377.4C913.205 378.334 908.671 379.066 903.737 379.6C898.937 380 893.738 380.2 888.138 380.2C884.138 380.2 880.004 380 875.737 379.6V383.8C880.671 383.8 884.004 385.267 885.737 388.2C887.604 391 888.537 395.4 888.537 401.4V464.4C888.537 470 887.537 473.8 885.537 475.8C883.67 477.8 880.404 478.8 875.737 478.8V483C878.404 482.867 882.404 482.733 887.737 482.6C893.07 482.333 898.337 482.2 903.537 482.2C908.737 482.2 913.871 482.333 918.938 482.6C924.004 482.733 927.738 482.867 930.138 483V478.8C925.471 478.8 922.138 477.8 920.138 475.8C918.271 473.8 917.338 470 917.338 464.4V377.4ZM317.896 342.2C324.963 342.2 331.363 345.067 337.097 350.8C342.963 356.4 347.563 364.4 350.896 374.8C354.363 385.2 356.097 397.533 356.097 411.8C356.097 425.533 354.564 437.734 351.497 448.4C348.564 458.934 344.297 467.2 338.697 473.2C333.231 479.2 326.764 482.2 319.297 482.2C312.23 482.2 305.763 479.4 299.896 473.8C294.163 468.066 289.563 459.999 286.097 449.6C282.763 439.066 281.097 426.733 281.097 412.6C281.097 398.733 282.564 386.533 285.497 376C288.564 365.467 292.83 357.2 298.297 351.2C303.897 345.2 310.43 342.2 317.896 342.2ZM825.35 385.4C829.083 385.4 832.284 386.866 834.95 389.8C837.617 392.6 839.617 397.4 840.95 404.2C842.417 410.867 843.15 419.934 843.15 431.4C843.15 448.334 841.35 460.934 837.75 469.2C834.15 477.467 828.683 481.6 821.35 481.6C818.15 481.6 814.883 480.867 811.55 479.4C809.758 478.579 808.091 477.527 806.55 476.245V402.708C807.54 397.943 809.54 394.107 812.55 391.2C816.416 387.334 820.683 385.401 825.35 385.4ZM559.38 463.4C557.38 466.334 555.246 468.466 552.979 469.8C550.846 471 548.446 471.6 545.779 471.6C542.046 471.6 539.046 470.333 536.779 467.8C534.513 465.267 533.38 461.4 533.38 456.2C533.38 452.067 534.047 448.533 535.38 445.6C536.713 442.666 538.447 440.2 540.58 438.2C542.847 436.2 545.18 434.4 547.58 432.8C549.98 431.067 552.247 429.4 554.38 427.8C556.513 426.2 558.18 424.4 559.38 422.4V463.4ZM984.224 463.4C982.224 466.334 980.09 468.466 977.823 469.8C975.69 471 973.29 471.6 970.623 471.6C966.89 471.6 963.89 470.333 961.623 467.8C959.357 465.267 958.224 461.4 958.224 456.2C958.224 452.067 958.89 448.533 960.224 445.6C961.557 442.666 963.291 440.2 965.424 438.2C967.69 436.2 970.024 434.4 972.424 432.8C974.824 431.067 977.09 429.4 979.224 427.8C981.357 426.2 983.024 424.4 984.224 422.4V463.4ZM901.737 328C896.137 328 891.671 329.4 888.338 332.2C885.138 334.867 883.537 338.6 883.537 343.4C883.537 348.2 885.138 352 888.338 354.8C891.671 357.466 896.138 358.8 901.737 358.8C907.337 358.8 911.737 357.466 914.938 354.8C918.271 352 919.937 348.2 919.938 343.4C919.938 338.6 918.271 334.867 914.938 332.2C911.737 329.4 907.337 328 901.737 328Z" fill="#071317"/>
</svg>
