<svg width="393" height="852" viewBox="0 0 393 852" fill="none" xmlns="http://www.w3.org/2000/svg">
<path d="M393 852H0V0H393V852ZM47.6455 394.773C42.5512 394.773 38.0447 395.924 34.126 398.227C30.2563 400.529 27.1946 403.737 24.9414 407.852C22.7372 411.966 21.6357 416.767 21.6357 422.253C21.6358 427.837 22.713 432.613 24.8682 436.58C27.0234 440.548 30.0357 443.585 33.9053 445.691C36.9172 447.31 40.306 448.304 44.0703 448.679C42.741 449.203 41.4346 449.75 40.1514 450.32C38.8779 450.957 37.3348 451.521 35.5225 452.011C33.5141 451.325 31.6519 450.981 29.9375 450.981C27.2437 450.982 25.8965 451.643 25.8965 452.966C25.8966 453.651 26.2152 454.141 26.8516 454.435C27.5373 454.728 28.3709 454.876 29.3506 454.876C30.3301 454.876 31.359 454.728 32.4365 454.435C33.563 454.141 34.5919 453.774 35.5225 453.333C35.7183 453.333 35.9632 453.382 36.2568 453.479C36.5996 453.626 36.9424 453.749 37.2852 453.847C40.2242 454.973 43.017 456.125 45.6621 457.301C48.3071 458.525 50.9032 459.554 53.4502 460.387C56.0463 461.219 58.6917 461.636 61.3857 461.636C63.3938 461.636 65.206 461.366 66.8223 460.827C68.4877 460.288 69.8346 459.602 70.8633 458.77C72.1858 457.692 73.264 456.174 74.0967 454.215C74.9294 452.304 75.5417 450.002 75.9336 447.308L74.6113 446.94C73.4357 448.9 71.9656 450.369 70.2021 451.349C68.4388 452.328 66.0389 452.99 63.002 453.333C60.9446 453.627 58.6419 453.725 56.0947 453.627C53.5477 453.578 50.7798 453.406 47.792 453.112C44.8041 452.867 41.5714 452.623 38.0938 452.378C39.6122 451.937 40.9349 451.471 42.0615 450.981C43.1881 450.492 44.2906 450.027 45.3682 449.586C46.413 449.223 47.6473 448.965 49.0713 448.812C53.5094 448.605 57.4916 447.469 61.0176 445.397C64.9852 443.095 68.0721 439.887 70.2764 435.772C72.4806 431.658 73.582 426.857 73.582 421.371C73.582 415.738 72.5049 410.962 70.3496 407.043C68.1943 403.075 65.1569 400.039 61.2383 397.933C57.3686 395.826 52.8377 394.773 47.6455 394.773ZM226.871 390.364C225.353 390.707 223.687 390.977 221.875 391.173C220.063 391.32 218.152 391.394 216.144 391.394C214.674 391.394 213.156 391.32 211.589 391.173V392.716C213.401 392.716 214.625 393.255 215.262 394.332C215.947 395.361 216.291 396.977 216.291 399.182V444.222C216.291 444.907 216.242 445.594 216.144 446.279C216.095 446.965 215.972 447.651 215.776 448.337L216.879 448.998C217.614 448.361 218.52 447.822 219.598 447.381C220.675 446.891 221.851 446.548 223.124 446.353C224.232 446.182 225.321 446.16 226.392 446.286C227.188 446.932 228.057 447.444 229.002 447.822C230.716 448.508 232.578 448.851 234.586 448.851C237.623 448.851 240.415 448.165 242.962 446.794C245.509 445.422 247.542 443.193 249.061 440.107C250.628 437.021 251.412 432.931 251.412 427.837C251.412 421.371 250.138 416.595 247.591 413.509C245.093 410.374 241.934 408.807 238.113 408.807C235.321 408.807 232.872 409.541 230.766 411.011C229.071 412.154 227.773 413.741 226.871 415.772V390.364ZM111.42 409.027C109.902 409.37 108.236 409.64 106.424 409.836C104.66 409.983 102.75 410.056 100.692 410.056C99.2229 410.056 97.7042 409.983 96.1367 409.836V411.379C97.9491 411.379 99.1738 411.917 99.8105 412.995C100.496 414.024 100.839 415.641 100.839 417.845V437.095C100.839 438.711 100.496 440.18 99.8105 441.503C99.1738 442.776 98.3168 443.781 97.2393 444.516C96.2106 445.25 95.0345 445.618 93.7119 445.618C92.4875 445.618 91.5567 445.373 90.9199 444.883C90.2833 444.344 89.8425 443.609 89.5977 442.679C89.4018 441.748 89.3037 440.671 89.3037 439.446V409.027C87.7853 409.37 86.1199 409.64 84.3076 409.836C82.5442 409.983 80.6335 410.056 78.5762 410.056C77.1067 410.056 75.5879 409.983 74.0205 409.836V411.379C75.8329 411.379 77.0576 411.917 77.6943 412.995C78.3801 414.024 78.7236 415.64 78.7236 417.845V436.434C78.7236 438.834 78.8944 440.793 79.2373 442.312C79.5802 443.83 80.1683 445.055 81.001 445.985C81.7357 446.818 82.7401 447.504 84.0137 448.043C85.2872 448.582 86.9526 448.851 89.0098 448.851C91.5568 448.851 93.8588 448.336 95.916 447.308C98.0223 446.23 99.6633 444.467 100.839 442.018V448.631C102.406 448.239 104.073 447.969 105.836 447.822C107.599 447.675 109.509 447.602 111.566 447.602C113.085 447.602 114.604 447.675 116.122 447.822V446.279C114.359 446.279 113.134 445.765 112.448 444.736C111.762 443.659 111.42 442.018 111.42 439.813V409.027ZM362.521 397.785C361.003 398.618 359.362 399.23 357.599 399.622C355.884 399.965 353.999 400.137 351.941 400.137V409.836H345.77V411.305H351.941V436.14C351.941 438.687 352.112 440.768 352.455 442.385C352.798 443.952 353.508 445.275 354.586 446.353C355.419 447.185 356.447 447.798 357.672 448.189C358.896 448.63 360.317 448.851 361.934 448.851C364.677 448.851 366.832 448.14 368.399 446.72C370.016 445.299 371.216 443.487 372 441.283L370.751 440.622C370.065 442.238 369.281 443.389 368.399 444.075C367.518 444.712 366.636 445.03 365.755 445.03C364.677 445.03 363.869 444.736 363.33 444.148C362.791 443.512 362.522 442.459 362.521 440.989V411.305H371.191V409.836H362.521V397.785ZM198.857 408.807C196.359 408.807 194.008 409.321 191.804 410.35C189.691 411.358 187.98 413.284 186.668 416.127C186.62 415.853 186.571 415.592 186.514 415.346C186.171 413.827 185.607 412.603 184.823 411.672C184.04 410.79 183.011 410.105 181.737 409.615C180.464 409.076 178.798 408.807 176.741 408.807C174.341 408.807 172.136 409.345 170.128 410.423C168.12 411.451 166.528 413.191 165.353 415.64V409.027C163.834 409.37 162.169 409.64 160.356 409.836C158.593 409.983 156.682 410.056 154.625 410.056C153.155 410.056 151.637 409.983 150.069 409.836V411.379C151.882 411.379 153.106 411.917 153.743 412.995C154.429 414.024 154.771 415.641 154.771 417.845V440.989C154.771 443.046 154.404 444.442 153.67 445.177C153.09 445.798 152.141 446.155 150.825 446.251C151.109 446.052 151.382 445.842 151.644 445.618L150.909 444.369C150.419 444.712 149.954 445.006 149.513 445.251C149.121 445.496 148.704 445.618 148.264 445.618C147.676 445.618 147.26 445.398 147.015 444.957C146.77 444.467 146.647 443.609 146.647 442.385V422.399C146.647 419.901 146.476 417.844 146.133 416.228C145.79 414.562 145.055 413.167 143.929 412.04C142.704 410.815 141.185 409.983 139.373 409.542C137.561 409.052 135.528 408.807 133.274 408.807C131.021 408.807 128.915 409.027 126.956 409.468C125.046 409.909 123.405 410.521 122.033 411.305C120.76 412.137 119.755 413.02 119.021 413.95C118.335 414.881 117.992 416.056 117.992 417.477C117.992 419.044 118.433 420.391 119.314 421.518C120.245 422.595 121.592 423.135 123.355 423.135C124.923 423.135 126.27 422.645 127.396 421.665C128.572 420.685 129.16 419.363 129.16 417.697C129.16 416.424 128.768 415.297 127.984 414.317C127.25 413.289 126.197 412.53 124.825 412.04C125.462 411.403 126.27 410.962 127.25 410.717C128.229 410.423 129.209 410.276 130.188 410.276C131.56 410.276 132.662 410.546 133.495 411.085C134.377 411.624 135.013 412.407 135.405 413.436C135.846 414.415 136.066 415.542 136.066 416.815V422.547C136.066 423.673 135.577 424.604 134.598 425.339C133.667 426.025 132.417 426.637 130.85 427.176C129.331 427.666 127.715 428.18 126.001 428.719C124.336 429.258 122.743 429.944 121.225 430.776C119.706 431.609 118.457 432.686 117.478 434.009C116.547 435.331 116.081 437.046 116.081 439.152C116.081 440.818 116.425 442.361 117.11 443.781C117.796 445.153 118.873 446.255 120.343 447.088C121.812 447.921 123.649 448.337 125.854 448.337C128.254 448.337 130.287 447.823 131.952 446.794C133.618 445.716 135.038 444.246 136.214 442.385C136.214 443.56 136.434 444.589 136.875 445.471C137.365 446.352 138.149 447.063 139.227 447.602C140.304 448.091 141.749 448.337 143.562 448.337C145.227 448.337 146.721 448.116 148.043 447.675C148.766 447.416 149.441 447.102 150.069 446.734V447.822C151.049 447.773 152.518 447.724 154.478 447.675C156.437 447.577 158.348 447.528 160.209 447.528C161.923 447.528 163.589 447.577 165.205 447.675C166.87 447.724 168.095 447.773 168.879 447.822V446.279C167.605 446.279 166.699 445.911 166.16 445.177C165.622 444.442 165.353 443.046 165.353 440.989V420.562C165.353 418.946 165.671 417.501 166.308 416.228C166.993 414.905 167.876 413.876 168.953 413.142C170.031 412.407 171.206 412.04 172.479 412.04C173.606 412.04 174.439 412.309 174.978 412.848C175.565 413.337 175.957 414.048 176.153 414.979C176.349 415.86 176.447 416.913 176.447 418.138V440.989C176.447 443.046 176.177 444.442 175.639 445.177C175.149 445.912 174.242 446.279 172.92 446.279V447.822C173.802 447.773 175.1 447.724 176.814 447.675C178.529 447.577 180.268 447.528 182.031 447.528C183.746 447.528 185.485 447.577 187.248 447.675C189.06 447.724 190.407 447.773 191.289 447.822V446.279C189.722 446.279 188.619 445.912 187.982 445.177C187.346 444.442 187.027 443.046 187.027 440.989V421.225C187.027 420.788 187.02 420.366 187.009 419.961C187.133 418.665 187.455 417.47 187.982 416.375C188.668 415.052 189.55 413.999 190.628 413.215C191.705 412.431 192.881 412.04 194.154 412.04C195.428 412.04 196.358 412.309 196.946 412.848C197.583 413.337 198 414.048 198.196 414.979C198.441 415.86 198.563 416.913 198.563 418.138V440.989C198.563 443.046 198.294 444.442 197.755 445.177C197.265 445.912 196.359 446.279 195.036 446.279V447.822C195.918 447.773 197.216 447.724 198.931 447.675C200.645 447.577 202.384 447.528 204.147 447.528C205.96 447.528 207.797 447.577 209.658 447.675C211.519 447.724 212.915 447.773 213.846 447.822V446.279C212.131 446.279 210.907 445.911 210.172 445.177C209.486 444.442 209.144 443.046 209.144 440.989V421.225C209.144 418.775 208.972 416.815 208.629 415.346C208.286 413.827 207.723 412.602 206.939 411.672C206.156 410.79 205.127 410.105 203.854 409.615C202.58 409.076 200.915 408.807 198.857 408.807ZM333.479 408.807C330.884 408.807 328.533 409.321 326.427 410.35C324.321 411.378 322.654 413.142 321.43 415.64V409.027C319.911 409.37 318.246 409.64 316.434 409.836C314.67 409.983 312.759 410.056 310.702 410.056C309.233 410.056 307.715 409.983 306.147 409.836V411.379C307.96 411.379 309.185 411.918 309.821 412.995C310.507 414.024 310.85 415.641 310.85 417.845V440.989C310.85 443.046 310.482 444.442 309.747 445.177C309.167 445.798 308.219 446.155 306.902 446.251C307.186 446.052 307.459 445.842 307.721 445.618L306.986 444.369C306.497 444.712 306.031 445.006 305.59 445.251C305.198 445.496 304.781 445.618 304.341 445.618C303.753 445.618 303.337 445.398 303.092 444.957C302.847 444.467 302.725 443.609 302.725 442.385V422.399C302.725 419.901 302.553 417.844 302.21 416.228C301.867 414.562 301.132 413.167 300.006 412.04C298.781 410.816 297.263 409.983 295.451 409.542C293.639 409.052 291.606 408.807 289.353 408.807C287.099 408.807 284.993 409.027 283.033 409.468C281.123 409.909 279.482 410.521 278.11 411.305C276.837 412.137 275.832 413.02 275.098 413.95C274.412 414.881 274.069 416.056 274.069 417.477C274.069 419.044 274.51 420.391 275.392 421.518C276.322 422.595 277.669 423.135 279.433 423.135C281 423.135 282.348 422.645 283.475 421.665C284.65 420.685 285.237 419.363 285.237 417.697C285.237 416.424 284.846 415.297 284.062 414.317C283.328 413.289 282.274 412.53 280.902 412.04C281.539 411.403 282.347 410.962 283.327 410.717C284.307 410.423 285.287 410.276 286.267 410.276C287.638 410.276 288.74 410.546 289.572 411.085C290.454 411.624 291.092 412.407 291.483 413.436C291.924 414.415 292.145 415.542 292.145 416.815V422.547C292.144 423.673 291.654 424.604 290.675 425.339C289.744 426.025 288.495 426.637 286.928 427.176C285.409 427.666 283.793 428.18 282.078 428.719C280.413 429.258 278.821 429.944 277.303 430.776C275.784 431.609 274.534 432.686 273.555 434.009C272.624 435.331 272.159 437.046 272.159 439.152C272.159 440.818 272.502 442.361 273.188 443.781C273.873 445.153 274.951 446.255 276.421 447.088C277.89 447.92 279.728 448.337 281.932 448.337C284.331 448.337 286.364 447.822 288.029 446.794C289.695 445.716 291.115 444.246 292.291 442.385C292.291 443.56 292.511 444.589 292.952 445.471C293.442 446.352 294.226 447.063 295.304 447.602C296.381 448.091 297.826 448.337 299.639 448.337C301.304 448.337 302.799 448.116 304.121 447.675C304.845 447.416 305.519 447.102 306.147 446.734V447.822C307.127 447.773 308.597 447.724 310.556 447.675C312.515 447.577 314.426 447.528 316.287 447.528C318.099 447.528 319.839 447.577 321.504 447.675C323.218 447.724 324.516 447.773 325.397 447.822V446.279C323.977 446.279 322.948 445.911 322.312 445.177C321.724 444.442 321.43 443.046 321.43 440.989V420.562C321.43 418.946 321.748 417.501 322.385 416.228C323.071 414.905 323.953 413.876 325.03 413.142C326.157 412.407 327.382 412.04 328.704 412.04C329.977 412.04 330.933 412.309 331.569 412.848C332.206 413.337 332.648 414.048 332.893 414.979C333.137 415.86 333.26 416.913 333.26 418.138V440.989C333.26 443.046 332.966 444.442 332.378 445.177C331.79 445.911 330.761 446.279 329.292 446.279V447.822C330.223 447.773 331.57 447.724 333.333 447.675C335.145 447.577 336.982 447.528 338.844 447.528C340.656 447.528 342.493 447.577 344.354 447.675C346.216 447.724 347.611 447.773 348.542 447.822V446.279C346.828 446.279 345.603 445.911 344.868 445.177C344.183 444.442 343.84 443.046 343.84 440.989V421.225C343.84 418.726 343.644 416.742 343.252 415.272C342.909 413.803 342.346 412.603 341.562 411.672C340.828 410.79 339.799 410.105 338.477 409.615C337.203 409.076 335.537 408.807 333.479 408.807ZM267.572 409.027C266.054 409.37 264.388 409.64 262.575 409.836C260.812 409.983 258.902 410.056 256.845 410.056C255.375 410.056 253.857 409.983 252.289 409.836V411.379C254.101 411.379 255.326 411.917 255.963 412.995C256.649 414.024 256.991 415.641 256.991 417.845V440.989C256.991 443.046 256.624 444.442 255.89 445.177C255.204 445.912 254.003 446.279 252.289 446.279V447.822C253.269 447.773 254.738 447.724 256.697 447.675C258.657 447.577 260.592 447.528 262.502 447.528C264.412 447.528 266.299 447.577 268.16 447.675C270.021 447.724 271.393 447.773 272.274 447.822V446.279C270.56 446.279 269.335 445.912 268.601 445.177C267.915 444.442 267.572 443.046 267.572 440.989V409.027ZM47.3516 396.096C49.9477 396.096 52.299 397.149 54.4053 399.255C56.5605 401.312 58.25 404.252 59.4746 408.072C60.7482 411.893 61.3857 416.424 61.3857 421.665C61.3857 426.71 60.8219 431.193 59.6953 435.111C58.6177 438.981 57.0503 442.018 54.9932 444.222C52.9849 446.426 50.6092 447.528 47.8662 447.528C45.2702 447.528 42.8945 446.5 40.7393 444.442C38.633 442.336 36.9425 439.372 35.6689 435.552C34.4444 431.682 33.832 427.151 33.832 421.959C33.832 416.865 34.3706 412.382 35.4482 408.513C36.5749 404.643 38.1431 401.607 40.1514 399.402C42.2087 397.198 44.6085 396.096 47.3516 396.096ZM233.778 411.966C235.15 411.966 236.325 412.505 237.305 413.583C238.284 414.612 239.019 416.375 239.509 418.873C240.048 421.322 240.317 424.653 240.317 428.865C240.317 435.086 239.655 439.715 238.333 442.752C237.01 445.789 235.003 447.308 232.309 447.308C231.133 447.308 229.933 447.039 228.708 446.5C228.049 446.198 227.438 445.808 226.871 445.336V418.332C227.234 416.578 227.968 415.166 229.075 414.097C230.496 412.676 232.064 411.966 233.778 411.966ZM136.066 440.622C135.332 441.699 134.548 442.483 133.716 442.973C132.932 443.414 132.05 443.634 131.07 443.634C129.699 443.634 128.596 443.169 127.764 442.238C126.931 441.308 126.515 439.887 126.515 437.977C126.515 436.458 126.76 435.16 127.25 434.082C127.74 433.005 128.377 432.098 129.16 431.363C129.993 430.629 130.85 429.968 131.731 429.38C132.613 428.743 133.446 428.131 134.229 427.543C135.013 426.955 135.626 426.294 136.066 425.56V440.622ZM292.145 440.622C291.41 441.7 290.626 442.483 289.793 442.973C289.009 443.413 288.128 443.634 287.148 443.634C285.777 443.634 284.674 443.169 283.842 442.238C283.009 441.308 282.593 439.887 282.593 437.977C282.593 436.458 282.837 435.16 283.327 434.082C283.817 433.004 284.454 432.098 285.237 431.363C286.07 430.629 286.928 429.968 287.81 429.38C288.691 428.743 289.524 428.131 290.308 427.543C291.091 426.955 291.704 426.294 292.145 425.56V440.622ZM261.841 390.879C259.784 390.879 258.143 391.393 256.918 392.422C255.742 393.401 255.154 394.773 255.154 396.536C255.154 398.3 255.742 399.696 256.918 400.725C258.143 401.704 259.784 402.194 261.841 402.194C263.898 402.194 265.515 401.704 266.69 400.725C267.915 399.696 268.527 398.3 268.527 396.536C268.527 394.773 267.915 393.401 266.69 392.422C265.515 391.393 263.898 390.879 261.841 390.879Z" fill="#071317"/>
</svg>
