<svg width="40" height="40" viewBox="0 0 40 40" fill="none" xmlns="http://www.w3.org/2000/svg">
<path d="M39.5 0.5V39.5H0.5V0.5H39.5Z" stroke="#C7C9D1"/>
<path d="M20.0001 28.3337C24.6025 28.3337 28.3334 24.6027 28.3334 20.0003C28.3334 15.398 24.6025 11.667 20.0001 11.667C15.3977 11.667 11.6667 15.398 11.6667 20.0003C11.6667 21.1494 11.8993 22.2441 12.3199 23.24C12.5524 23.7904 12.6686 24.0657 12.683 24.2736C12.6974 24.4816 12.6362 24.7104 12.5138 25.168L11.6667 28.3337L14.8324 27.4866C15.29 27.3642 15.5188 27.303 15.7268 27.3174C15.9348 27.3318 16.21 27.448 16.7604 27.6805C17.7563 28.1011 18.851 28.3337 20.0001 28.3337Z" stroke="#FAFAFA" stroke-width="1.25" stroke-linejoin="round"/>
<path d="M17.157 20.3146L17.8827 19.4132C18.1886 19.0333 18.5668 18.6796 18.5964 18.1737C18.6039 18.0459 18.514 17.4723 18.3342 16.325C18.2635 15.8742 17.8425 15.8335 17.4779 15.8335C17.0028 15.8335 16.7652 15.8335 16.5293 15.9413C16.2311 16.0775 15.925 16.4604 15.8578 16.7813C15.8047 17.0351 15.8442 17.2101 15.9232 17.5599C16.2587 19.0458 17.0458 20.5134 18.2664 21.7339C19.487 22.9545 20.9545 23.7416 22.4404 24.0772C22.7903 24.1562 22.9652 24.1957 23.2191 24.1425C23.5399 24.0753 23.9229 23.7692 24.0591 23.471C24.1668 23.2351 24.1668 22.9975 24.1668 22.5224C24.1668 22.1578 24.1262 21.7368 23.6753 21.6662C22.528 21.4864 21.9544 21.3965 21.8266 21.4039C21.3208 21.4335 20.967 21.8117 20.5871 22.1176L19.6857 22.8434" stroke="#FAFAFA" stroke-width="1.25"/>
</svg>
