<svg width="300" height="438" viewBox="0 0 300 438" fill="none" xmlns="http://www.w3.org/2000/svg">
<rect width="300" height="438" fill="#005F86"/>
<path d="M119.694 136.688C123.278 136.688 126.478 137.296 129.294 138.512C132.174 139.728 134.446 141.488 136.11 143.792C137.838 146.096 138.702 149.008 138.702 152.528C138.702 155.92 137.838 159.248 136.11 162.512C134.446 165.776 132.142 169.168 129.198 172.688C126.318 176.208 123.086 179.984 119.502 184.016C115.982 188.048 112.366 192.496 108.654 197.36H130.83C132.75 197.36 134.286 196.816 135.438 195.728C136.59 194.576 137.358 192.4 137.742 189.2H139.95C139.886 189.904 139.822 190.768 139.758 191.792C139.694 192.816 139.662 193.776 139.662 194.672C139.662 196.016 139.694 197.712 139.758 199.76C139.886 201.808 140.078 203.888 140.334 206H117.774C113.55 206 110.126 205.968 107.502 205.904C104.878 205.84 102.318 205.872 99.8221 206V204.08C101.998 201.84 104.334 199.28 106.83 196.4C109.326 193.52 111.79 190.416 114.222 187.088C116.718 183.76 118.958 180.304 120.942 176.72C122.99 173.072 124.622 169.328 125.838 165.488C127.054 161.648 127.662 157.808 127.662 153.968C127.662 150.384 127.15 147.504 126.126 145.328C125.102 143.088 123.726 141.456 121.998 140.432C120.27 139.344 118.35 138.8 116.238 138.8C114.254 138.8 112.302 139.28 110.382 140.24C108.462 141.2 107.118 142.608 106.35 144.464C107.95 144.784 109.294 145.424 110.382 146.384C111.534 147.344 112.11 148.624 112.11 150.224C112.11 151.952 111.502 153.328 110.286 154.352C109.134 155.376 107.726 155.888 106.062 155.888C104.206 155.888 102.798 155.312 101.838 154.16C100.878 152.944 100.398 151.568 100.398 150.032C100.398 148.816 100.718 147.536 101.358 146.192C102.062 144.848 103.022 143.6 104.238 142.448C106.286 140.4 108.654 138.928 111.342 138.032C114.03 137.136 116.814 136.688 119.694 136.688ZM175.155 136.688C180.083 136.688 184.371 138.064 188.019 140.816C191.731 143.568 194.611 147.536 196.659 152.72C198.771 157.84 199.827 164.08 199.827 171.44C199.827 178.608 198.739 184.88 196.563 190.256C194.451 195.632 191.539 199.824 187.827 202.832C184.115 205.84 179.859 207.344 175.059 207.344C170.131 207.344 165.811 205.968 162.099 203.216C158.387 200.464 155.507 196.496 153.459 191.312C151.411 186.128 150.387 179.888 150.387 172.592C150.387 165.424 151.443 159.152 153.555 153.776C155.667 148.4 158.579 144.208 162.291 141.2C166.067 138.192 170.355 136.688 175.155 136.688ZM174.771 138.416C170.355 138.416 167.059 141.328 164.883 147.152C162.771 152.976 161.715 161.328 161.715 172.208C161.715 183.408 162.931 191.792 165.363 197.36C167.795 202.864 171.155 205.616 175.443 205.616C179.859 205.616 183.123 202.704 185.235 196.88C187.411 191.056 188.499 182.704 188.499 171.824C188.499 160.624 187.251 152.272 184.755 146.768C182.323 141.2 178.995 138.416 174.771 138.416ZM124.897 234.688C128.481 234.688 131.681 235.296 134.497 236.512C137.377 237.728 139.649 239.488 141.313 241.792C143.041 244.096 143.905 247.008 143.905 250.528C143.905 253.92 143.041 257.248 141.313 260.512C139.649 263.776 137.345 267.168 134.401 270.688C131.521 274.208 128.289 277.984 124.705 282.016C121.185 286.048 117.569 290.496 113.857 295.36H136.033C137.953 295.36 139.489 294.816 140.641 293.728C141.793 292.576 142.561 290.4 142.945 287.2H145.153C145.089 287.904 145.025 288.768 144.961 289.792C144.897 290.816 144.865 291.776 144.865 292.672C144.865 294.016 144.897 295.712 144.961 297.76C145.089 299.808 145.281 301.888 145.537 304H122.977C118.753 304 115.329 303.968 112.705 303.904C110.081 303.84 107.521 303.872 105.025 304V302.08C107.201 299.84 109.537 297.28 112.033 294.4C114.529 291.52 116.993 288.416 119.425 285.088C121.921 281.76 124.161 278.304 126.145 274.72C128.193 271.072 129.825 267.328 131.041 263.488C132.257 259.648 132.865 255.808 132.865 251.968C132.865 248.384 132.353 245.504 131.329 243.328C130.305 241.088 128.929 239.456 127.201 238.432C125.473 237.344 123.553 236.8 121.441 236.8C119.457 236.8 117.505 237.28 115.585 238.24C113.665 239.2 112.321 240.608 111.553 242.464C113.153 242.784 114.497 243.424 115.585 244.384C116.737 245.344 117.313 246.624 117.313 248.224C117.313 249.952 116.705 251.328 115.489 252.352C114.337 253.376 112.929 253.888 111.265 253.888C109.409 253.888 108.001 253.312 107.041 252.16C106.081 250.944 105.601 249.568 105.601 248.032C105.601 246.816 105.921 245.536 106.561 244.192C107.265 242.848 108.225 241.6 109.441 240.448C111.489 238.4 113.857 236.928 116.545 236.032C119.233 235.136 122.017 234.688 124.897 234.688ZM191.302 231.232C191.238 232 191.174 232.96 191.11 234.112C191.046 235.2 191.014 236.16 191.014 236.992C191.014 238.144 191.046 239.36 191.11 240.64C191.238 241.856 191.43 243.2 191.686 244.672H161.254L160.198 266.656C162.246 265.248 164.422 264.256 166.726 263.68C169.094 263.04 171.558 262.72 174.118 262.72C177.958 262.72 181.51 263.456 184.774 264.928C188.038 266.4 190.662 268.64 192.646 271.648C194.694 274.656 195.718 278.368 195.718 282.784C195.718 287.648 194.63 291.776 192.454 295.168C190.278 298.496 187.334 301.024 183.622 302.752C179.974 304.48 175.846 305.344 171.238 305.344C168.934 305.344 166.79 305.056 164.806 304.48C162.886 303.968 161.222 303.232 159.814 302.272C158.022 301.184 156.678 299.968 155.782 298.624C154.886 297.216 154.438 295.872 154.438 294.592C154.438 292.928 154.982 291.552 156.07 290.464C157.158 289.312 158.566 288.736 160.294 288.736C161.958 288.736 163.334 289.248 164.422 290.272C165.574 291.232 166.15 292.64 166.15 294.496C166.15 296.032 165.702 297.312 164.806 298.336C163.974 299.36 162.822 300.064 161.35 300.448C161.926 301.28 163.078 302.016 164.806 302.656C166.598 303.296 168.454 303.616 170.374 303.616C172.358 303.616 174.214 303.296 175.942 302.656C177.734 302.016 179.27 300.896 180.55 299.296C181.894 297.696 182.918 295.584 183.622 292.96C184.326 290.336 184.678 287.04 184.678 283.072C184.678 278.848 184.102 275.392 182.95 272.704C181.798 270.016 180.23 268.032 178.246 266.752C176.262 265.472 174.086 264.832 171.718 264.832C170.31 264.832 168.486 265.12 166.246 265.696C164.006 266.208 161.83 267.264 159.718 268.864L158.182 268.288L159.91 235.648C161.19 235.904 162.63 236.032 164.23 236.032H182.47C184.71 236.032 186.374 235.68 187.462 234.976C188.55 234.272 189.254 233.024 189.574 231.232H191.302Z" fill="white"/>
<path d="M50.5 275L50.5 156C50.5 101.048 95.0477 56.5 150 56.5C204.952 56.5 249.5 101.048 249.5 156L249.5 275C249.5 329.952 204.952 374.5 150 374.5C95.477 374.5 51.1964 330.646 50.5078 276.286L50.5 275Z" stroke="url(#paint0_linear_1498_9545)"/>
<path d="M114.298 61.22L114.618 61.34C114.485 61.9533 114.312 62.4667 114.098 62.88C113.885 63.3067 113.625 63.6467 113.318 63.9C113.065 64.1267 112.718 64.3267 112.278 64.5C111.838 64.6733 111.298 64.76 110.658 64.76C109.952 64.76 109.258 64.64 108.578 64.4C107.912 64.1733 107.218 63.8933 106.498 63.56C105.792 63.24 105.018 62.9333 104.178 62.64C104.085 62.6133 103.998 62.5867 103.918 62.56C103.838 62.5333 103.765 62.5133 103.698 62.5C103.445 62.6067 103.172 62.6867 102.878 62.74C102.585 62.8067 102.305 62.84 102.038 62.84C101.772 62.84 101.552 62.8 101.378 62.72C101.205 62.6533 101.118 62.5467 101.118 62.4C101.118 62.0933 101.478 61.94 102.198 61.94C102.665 61.94 103.165 62.0067 103.698 62.14C104.192 62.0067 104.612 61.8533 104.958 61.68C105.305 61.52 105.665 61.3667 106.038 61.22C106.412 61.0733 106.858 60.98 107.378 60.94L107.398 61.26C106.998 61.3 106.645 61.3733 106.338 61.48C106.045 61.6 105.752 61.7267 105.458 61.86C105.165 61.9933 104.812 62.12 104.398 62.24C105.158 62.3467 105.938 62.46 106.738 62.58C107.538 62.7133 108.298 62.8133 109.018 62.88C109.738 62.96 110.365 62.9867 110.898 62.96C111.805 62.9333 112.525 62.78 113.058 62.5C113.592 62.2333 114.005 61.8067 114.298 61.22ZM106.838 46.56C108.145 46.56 109.292 46.8467 110.278 47.42C111.278 47.9933 112.052 48.82 112.598 49.9C113.145 50.9667 113.418 52.2667 113.418 53.8C113.418 55.2933 113.138 56.6 112.578 57.72C112.018 58.84 111.238 59.7133 110.238 60.34C109.238 60.9667 108.098 61.28 106.818 61.28C105.498 61.28 104.345 60.9933 103.358 60.42C102.372 59.8467 101.605 59.02 101.058 57.94C100.512 56.86 100.238 55.56 100.238 54.04C100.238 52.5467 100.518 51.24 101.078 50.12C101.652 49 102.432 48.1267 103.418 47.5C104.405 46.8733 105.545 46.56 106.838 46.56ZM106.758 46.92C105.932 46.92 105.212 47.22 104.598 47.82C103.985 48.42 103.512 49.2467 103.178 50.3C102.845 51.3533 102.678 52.5733 102.678 53.96C102.678 55.3733 102.865 56.6067 103.238 57.66C103.612 58.7 104.118 59.5067 104.758 60.08C105.398 60.64 106.112 60.92 106.898 60.92C107.725 60.92 108.438 60.62 109.038 60.02C109.652 59.42 110.125 58.5933 110.458 57.54C110.805 56.4733 110.978 55.2533 110.978 53.88C110.978 52.4533 110.785 51.22 110.398 50.18C110.025 49.14 109.518 48.34 108.878 47.78C108.252 47.2067 107.545 46.92 106.758 46.92ZM124.315 50.46V58.84C124.315 59.44 124.415 59.8867 124.615 60.18C124.828 60.46 125.208 60.6 125.755 60.6V61.02C125.341 60.98 124.928 60.96 124.515 60.96C124.075 60.96 123.655 60.98 123.255 61.02C122.855 61.06 122.488 61.1333 122.155 61.24V59.06C121.821 59.86 121.355 60.4333 120.755 60.78C120.168 61.1133 119.548 61.28 118.895 61.28C118.401 61.28 117.981 61.2067 117.635 61.06C117.288 60.9267 117.001 60.7467 116.775 60.52C116.535 60.2533 116.368 59.9133 116.275 59.5C116.181 59.0733 116.135 58.54 116.135 57.9V52.86C116.135 52.26 116.035 51.82 115.835 51.54C115.635 51.2467 115.255 51.1 114.695 51.1V50.68C115.121 50.72 115.535 50.74 115.935 50.74C116.375 50.74 116.795 50.72 117.195 50.68C117.595 50.6267 117.961 50.5533 118.295 50.46V58.46C118.295 58.8467 118.321 59.2 118.375 59.52C118.428 59.84 118.555 60.0933 118.755 60.28C118.955 60.4667 119.275 60.56 119.715 60.56C120.181 60.56 120.595 60.42 120.955 60.14C121.328 59.86 121.621 59.48 121.835 59C122.048 58.52 122.155 57.98 122.155 57.38V52.86C122.155 52.26 122.055 51.82 121.855 51.54C121.655 51.2467 121.275 51.1 120.715 51.1V50.68C121.141 50.72 121.555 50.74 121.955 50.74C122.395 50.74 122.815 50.72 123.215 50.68C123.615 50.6267 123.981 50.5533 124.315 50.46ZM129.532 61.14C128.972 61.14 128.492 61.0333 128.092 60.82C127.692 60.6067 127.392 60.3133 127.192 59.94C126.992 59.5667 126.892 59.14 126.892 58.66C126.892 58.0733 127.025 57.6 127.292 57.24C127.559 56.8667 127.899 56.5667 128.312 56.34C128.739 56.1133 129.185 55.9267 129.652 55.78C130.132 55.62 130.579 55.4733 130.992 55.34C131.419 55.1933 131.765 55.0267 132.032 54.84C132.312 54.6533 132.452 54.4067 132.452 54.1V52.74C132.452 52.26 132.372 51.88 132.212 51.6C132.065 51.3067 131.859 51.1 131.592 50.98C131.339 50.86 131.032 50.8 130.672 50.8C130.365 50.8 130.039 50.8467 129.692 50.94C129.345 51.02 129.072 51.1867 128.872 51.44C129.165 51.52 129.405 51.68 129.592 51.92C129.792 52.1467 129.892 52.4333 129.892 52.78C129.892 53.1533 129.765 53.4467 129.512 53.66C129.272 53.8733 128.965 53.98 128.592 53.98C128.179 53.98 127.872 53.8533 127.672 53.6C127.472 53.3333 127.372 53.0267 127.372 52.68C127.372 52.32 127.459 52.0267 127.632 51.8C127.819 51.5733 128.059 51.36 128.352 51.16C128.672 50.9467 129.079 50.7667 129.572 50.62C130.079 50.4733 130.639 50.4 131.252 50.4C131.825 50.4 132.319 50.4667 132.732 50.6C133.159 50.72 133.512 50.92 133.792 51.2C134.125 51.5067 134.345 51.8933 134.452 52.36C134.559 52.8133 134.612 53.3667 134.612 54.02V59.54C134.612 59.8733 134.652 60.1133 134.732 60.26C134.825 60.3933 134.972 60.46 135.172 60.46C135.305 60.46 135.432 60.4267 135.552 60.36C135.685 60.2933 135.839 60.1933 136.012 60.06L136.212 60.4C135.932 60.6267 135.645 60.8067 135.352 60.94C135.072 61.0733 134.712 61.14 134.272 61.14C133.845 61.14 133.499 61.0733 133.232 60.94C132.965 60.8067 132.765 60.6133 132.632 60.36C132.512 60.1067 132.452 59.7933 132.452 59.42C132.105 59.98 131.692 60.4067 131.212 60.7C130.732 60.9933 130.172 61.14 129.532 61.14ZM130.492 60.18C130.865 60.18 131.212 60.0733 131.532 59.86C131.865 59.6467 132.172 59.3267 132.452 58.9V54.92C132.305 55.1333 132.092 55.32 131.812 55.48C131.532 55.6267 131.232 55.78 130.912 55.94C130.592 56.1 130.285 56.2867 129.992 56.5C129.712 56.7 129.479 56.96 129.292 57.28C129.105 57.6 129.012 58.0067 129.012 58.5C129.012 59.02 129.145 59.4333 129.412 59.74C129.679 60.0333 130.039 60.18 130.492 60.18ZM143.63 50.4C144.136 50.4 144.563 50.4733 144.91 50.62C145.256 50.7533 145.536 50.94 145.75 51.18C145.99 51.4333 146.156 51.7733 146.25 52.2C146.343 52.6133 146.39 53.14 146.39 53.78V59.14C146.39 59.7 146.496 60.08 146.71 60.28C146.923 60.48 147.283 60.58 147.79 60.58V61C147.563 60.9867 147.21 60.9733 146.73 60.96C146.263 60.9333 145.803 60.92 145.35 60.92C144.896 60.92 144.45 60.9333 144.01 60.96C143.583 60.9733 143.256 60.9867 143.03 61V60.58C143.47 60.58 143.776 60.48 143.95 60.28C144.136 60.08 144.23 59.7 144.23 59.14V53.22C144.23 52.8333 144.203 52.4867 144.15 52.18C144.096 51.86 143.97 51.6067 143.77 51.42C143.583 51.22 143.283 51.12 142.87 51.12C142.403 51.12 141.983 51.26 141.61 51.54C141.25 51.82 140.956 52.2067 140.73 52.7C140.516 53.18 140.41 53.72 140.41 54.32V59.14C140.41 59.7 140.503 60.08 140.69 60.28C140.876 60.48 141.183 60.58 141.61 60.58V61C141.396 60.9867 141.076 60.9733 140.65 60.96C140.223 60.9333 139.783 60.92 139.33 60.92C138.876 60.92 138.403 60.9333 137.91 60.96C137.416 60.9733 137.05 60.9867 136.81 61V60.58C137.33 60.58 137.696 60.48 137.91 60.28C138.136 60.08 138.25 59.7 138.25 59.14V52.86C138.25 52.26 138.15 51.82 137.95 51.54C137.75 51.2467 137.37 51.1 136.81 51.1V50.68C137.236 50.72 137.65 50.74 138.05 50.74C138.503 50.74 138.923 50.72 139.31 50.68C139.71 50.6267 140.076 50.5533 140.41 50.46V52.64C140.756 51.84 141.216 51.2667 141.79 50.92C142.376 50.5733 142.99 50.4 143.63 50.4ZM149.65 50.4C150.156 50.4 150.583 50.4733 150.93 50.62C151.276 50.7533 151.556 50.94 151.77 51.18C152.01 51.4333 152.176 51.7733 152.27 52.2C152.363 52.6133 152.41 53.14 152.41 53.78V59.14C152.41 59.7 152.516 60.08 152.73 60.28C152.956 60.48 153.33 60.58 153.85 60.58V61C153.623 60.9867 153.27 60.9733 152.79 60.96C152.31 60.9333 151.836 60.92 151.37 60.92C150.916 60.92 150.47 60.9333 150.03 60.96C149.603 60.9733 149.276 60.9867 149.05 61V60.58C149.49 60.58 149.796 60.48 149.97 60.28C150.156 60.08 150.25 59.7 150.25 59.14V53.22C150.25 52.8333 150.223 52.4867 150.17 52.18C150.116 51.86 149.99 51.6067 149.79 51.42C149.59 51.22 149.276 51.12 148.85 51.12C148.383 51.12 147.963 51.2667 147.59 51.56C147.23 51.84 146.936 52.2267 146.71 52.72C146.496 53.2 146.39 53.74 146.39 54.34L146.31 52.68C146.67 51.8 147.15 51.2 147.75 50.88C148.363 50.56 148.996 50.4 149.65 50.4ZM160.941 50.4C162.007 50.4 162.894 50.8467 163.601 51.74C164.321 52.62 164.681 53.96 164.681 55.76C164.681 57.0267 164.474 58.0667 164.061 58.88C163.647 59.6933 163.094 60.3 162.401 60.7C161.721 61.0867 160.981 61.28 160.181 61.28C159.554 61.28 158.954 61.1267 158.381 60.82C157.807 60.5 157.367 60.02 157.061 59.38L157.421 59.48C157.714 59.9333 158.081 60.2733 158.521 60.5C158.961 60.7267 159.407 60.84 159.861 60.84C160.701 60.84 161.327 60.4333 161.741 59.62C162.167 58.8067 162.381 57.5533 162.381 55.86C162.381 54.7533 162.294 53.8467 162.121 53.14C161.961 52.4333 161.714 51.92 161.381 51.6C161.061 51.2667 160.654 51.1 160.161 51.1C159.587 51.1 159.061 51.3467 158.581 51.84C158.101 52.3333 157.814 53.0467 157.721 53.98L157.521 53.56C157.707 52.56 158.107 51.7867 158.721 51.24C159.347 50.68 160.087 50.4 160.941 50.4ZM157.841 45.34V60.18C157.614 60.26 157.381 60.36 157.141 60.48C156.901 60.6 156.674 60.7333 156.461 60.88C156.247 61.0133 156.047 61.16 155.861 61.32L155.541 61.16C155.594 60.9733 155.627 60.7867 155.641 60.6C155.667 60.4133 155.681 60.22 155.681 60.02V47.74C155.681 47.14 155.574 46.7 155.361 46.42C155.161 46.1267 154.787 45.98 154.241 45.98V45.56C154.667 45.6 155.081 45.62 155.481 45.62C155.921 45.62 156.341 45.6 156.741 45.56C157.141 45.5067 157.507 45.4333 157.841 45.34ZM168.506 45.64C168.92 45.64 169.266 45.7733 169.546 46.04C169.826 46.2933 169.966 46.6133 169.966 47C169.966 47.3867 169.826 47.7133 169.546 47.98C169.266 48.2333 168.92 48.36 168.506 48.36C168.093 48.36 167.746 48.2333 167.466 47.98C167.186 47.7133 167.046 47.3867 167.046 47C167.046 46.6133 167.186 46.2933 167.466 46.04C167.746 45.7733 168.093 45.64 168.506 45.64ZM169.706 50.46V59.14C169.706 59.7 169.813 60.08 170.026 60.28C170.253 60.48 170.626 60.58 171.146 60.58V61C170.92 60.9867 170.566 60.9733 170.086 60.96C169.62 60.9333 169.14 60.92 168.646 60.92C168.18 60.92 167.7 60.9333 167.206 60.96C166.713 60.9733 166.346 60.9867 166.106 61V60.58C166.626 60.58 166.993 60.48 167.206 60.28C167.433 60.08 167.546 59.7 167.546 59.14V52.86C167.546 52.26 167.446 51.82 167.246 51.54C167.046 51.2467 166.666 51.1 166.106 51.1V50.68C166.533 50.72 166.946 50.74 167.346 50.74C167.8 50.74 168.22 50.72 168.606 50.68C169.006 50.6267 169.373 50.5533 169.706 50.46ZM174.923 61.14C174.363 61.14 173.883 61.0333 173.483 60.82C173.083 60.6067 172.783 60.3133 172.583 59.94C172.383 59.5667 172.283 59.14 172.283 58.66C172.283 58.0733 172.416 57.6 172.683 57.24C172.949 56.8667 173.289 56.5667 173.703 56.34C174.129 56.1133 174.576 55.9267 175.043 55.78C175.523 55.62 175.969 55.4733 176.383 55.34C176.809 55.1933 177.156 55.0267 177.423 54.84C177.703 54.6533 177.843 54.4067 177.843 54.1V52.74C177.843 52.26 177.763 51.88 177.603 51.6C177.456 51.3067 177.249 51.1 176.983 50.98C176.729 50.86 176.423 50.8 176.063 50.8C175.756 50.8 175.429 50.8467 175.083 50.94C174.736 51.02 174.463 51.1867 174.263 51.44C174.556 51.52 174.796 51.68 174.983 51.92C175.183 52.1467 175.283 52.4333 175.283 52.78C175.283 53.1533 175.156 53.4467 174.903 53.66C174.663 53.8733 174.356 53.98 173.983 53.98C173.569 53.98 173.263 53.8533 173.063 53.6C172.863 53.3333 172.763 53.0267 172.763 52.68C172.763 52.32 172.849 52.0267 173.023 51.8C173.209 51.5733 173.449 51.36 173.743 51.16C174.063 50.9467 174.469 50.7667 174.963 50.62C175.469 50.4733 176.029 50.4 176.643 50.4C177.216 50.4 177.709 50.4667 178.123 50.6C178.549 50.72 178.903 50.92 179.183 51.2C179.516 51.5067 179.736 51.8933 179.843 52.36C179.949 52.8133 180.003 53.3667 180.003 54.02V59.54C180.003 59.8733 180.043 60.1133 180.123 60.26C180.216 60.3933 180.363 60.46 180.563 60.46C180.696 60.46 180.823 60.4267 180.943 60.36C181.076 60.2933 181.229 60.1933 181.403 60.06L181.603 60.4C181.323 60.6267 181.036 60.8067 180.743 60.94C180.463 61.0733 180.103 61.14 179.663 61.14C179.236 61.14 178.889 61.0733 178.623 60.94C178.356 60.8067 178.156 60.6133 178.023 60.36C177.903 60.1067 177.843 59.7933 177.843 59.42C177.496 59.98 177.083 60.4067 176.603 60.7C176.123 60.9933 175.563 61.14 174.923 61.14ZM175.883 60.18C176.256 60.18 176.603 60.0733 176.923 59.86C177.256 59.6467 177.563 59.3267 177.843 58.9V54.92C177.696 55.1333 177.483 55.32 177.203 55.48C176.923 55.6267 176.623 55.78 176.303 55.94C175.983 56.1 175.676 56.2867 175.383 56.5C175.103 56.7 174.869 56.96 174.683 57.28C174.496 57.6 174.403 58.0067 174.403 58.5C174.403 59.02 174.536 59.4333 174.803 59.74C175.069 60.0333 175.429 60.18 175.883 60.18ZM189.16 50.4C189.693 50.4 190.127 50.4733 190.46 50.62C190.807 50.7533 191.093 50.94 191.32 51.18C191.56 51.4333 191.727 51.76 191.82 52.16C191.927 52.56 191.98 53.1 191.98 53.78V59.14C191.98 59.7 192.087 60.08 192.3 60.28C192.527 60.48 192.9 60.58 193.42 60.58V61C193.193 60.9867 192.84 60.9733 192.36 60.96C191.88 60.9333 191.407 60.92 190.94 60.92C190.487 60.92 190.033 60.9333 189.58 60.96C189.14 60.9733 188.807 60.9867 188.58 61V60.58C189.033 60.58 189.353 60.48 189.54 60.28C189.727 60.08 189.82 59.7 189.82 59.14V53.22C189.82 52.8333 189.787 52.4867 189.72 52.18C189.653 51.86 189.513 51.6067 189.3 51.42C189.087 51.22 188.767 51.12 188.34 51.12C187.847 51.12 187.407 51.26 187.02 51.54C186.647 51.82 186.347 52.2067 186.12 52.7C185.907 53.18 185.8 53.72 185.8 54.32V59.14C185.8 59.7 185.893 60.08 186.08 60.28C186.28 60.48 186.6 60.58 187.04 60.58V61C186.827 60.9867 186.5 60.9733 186.06 60.96C185.633 60.9333 185.187 60.92 184.72 60.92C184.267 60.92 183.793 60.9333 183.3 60.96C182.807 60.9733 182.44 60.9867 182.2 61V60.58C182.72 60.58 183.087 60.48 183.3 60.28C183.527 60.08 183.64 59.7 183.64 59.14V52.86C183.64 52.26 183.54 51.82 183.34 51.54C183.14 51.2467 182.76 51.1 182.2 51.1V50.68C182.627 50.72 183.04 50.74 183.44 50.74C183.893 50.74 184.313 50.72 184.7 50.68C185.1 50.6267 185.467 50.5533 185.8 50.46V52.64C186.147 51.8133 186.62 51.2333 187.22 50.9C187.833 50.5667 188.48 50.4 189.16 50.4ZM197.751 47.38V50.7H200.511V51.1H197.751V58.96C197.751 59.5067 197.851 59.8933 198.051 60.12C198.251 60.3467 198.538 60.46 198.911 60.46C199.258 60.46 199.564 60.32 199.831 60.04C200.111 59.76 200.351 59.2867 200.551 58.62L200.931 58.76C200.771 59.4667 200.484 60.0667 200.071 60.56C199.671 61.04 199.078 61.28 198.291 61.28C197.838 61.28 197.458 61.22 197.151 61.1C196.844 60.9933 196.578 60.8333 196.351 60.62C196.058 60.3133 195.858 59.9467 195.751 59.52C195.644 59.0933 195.591 58.5267 195.591 57.82V51.1H193.751V50.7H195.591V47.78C196.004 47.7667 196.391 47.7333 196.751 47.68C197.111 47.6133 197.444 47.5133 197.751 47.38Z" fill="#FCF7F1"/>
<path d="M68.3231 75.672C69.3791 75.672 70.2431 75.832 70.9151 76.152C71.6031 76.456 72.2111 76.816 72.7391 77.232C73.0591 77.472 73.2991 77.504 73.4591 77.328C73.6351 77.136 73.7551 76.696 73.8191 76.008H74.3711C74.3391 76.616 74.3151 77.352 74.2991 78.216C74.2831 79.064 74.2751 80.2 74.2751 81.624H73.7231C73.6111 80.92 73.4991 80.344 73.3871 79.896C73.2911 79.448 73.1551 79.064 72.9791 78.744C72.8191 78.424 72.5951 78.112 72.3071 77.808C71.8431 77.232 71.2751 76.816 70.6031 76.56C69.9311 76.304 69.2191 76.176 68.4671 76.176C67.6511 76.176 66.9311 76.384 66.3071 76.8C65.6831 77.2 65.1551 77.776 64.7231 78.528C64.3071 79.28 63.9871 80.168 63.7631 81.192C63.5391 82.216 63.4271 83.336 63.4271 84.552C63.4271 85.8 63.5471 86.936 63.7871 87.96C64.0271 88.968 64.3711 89.84 64.8191 90.576C65.2831 91.296 65.8351 91.856 66.4751 92.256C67.1311 92.64 67.8591 92.832 68.6591 92.832C69.3151 92.832 69.9951 92.704 70.6991 92.448C71.4031 92.176 71.9631 91.768 72.3791 91.224C72.8271 90.744 73.1311 90.208 73.2911 89.616C73.4671 89.008 73.6111 88.184 73.7231 87.144H74.2751C74.2751 88.616 74.2831 89.808 74.2991 90.72C74.3151 91.616 74.3391 92.376 74.3711 93H73.8191C73.7551 92.312 73.6431 91.88 73.4831 91.704C73.3391 91.528 73.0911 91.552 72.7391 91.776C72.1471 92.192 71.5151 92.56 70.8431 92.88C70.1871 93.184 69.3391 93.336 68.2991 93.336C66.7151 93.336 65.3311 92.992 64.1471 92.304C62.9631 91.616 62.0431 90.624 61.3871 89.328C60.7311 88.032 60.4031 86.472 60.4031 84.648C60.4031 82.856 60.7391 81.288 61.4111 79.944C62.0991 78.6 63.0351 77.552 64.2191 76.8C65.4031 76.048 66.7711 75.672 68.3231 75.672ZM82.5152 80.28C83.5872 80.28 84.5392 80.504 85.3712 80.952C86.2032 81.4 86.8672 82.104 87.3632 83.064C87.8592 84.024 88.1072 85.28 88.1072 86.832C88.1072 88.384 87.8592 89.64 87.3632 90.6C86.8672 91.544 86.2032 92.24 85.3712 92.688C84.5392 93.12 83.5872 93.336 82.5152 93.336C81.4592 93.336 80.5072 93.12 79.6592 92.688C78.8112 92.24 78.1392 91.544 77.6432 90.6C77.1632 89.64 76.9232 88.384 76.9232 86.832C76.9232 85.28 77.1632 84.024 77.6432 83.064C78.1392 82.104 78.8112 81.4 79.6592 80.952C80.5072 80.504 81.4592 80.28 82.5152 80.28ZM82.5152 80.76C81.6832 80.76 81.0032 81.24 80.4752 82.2C79.9472 83.144 79.6832 84.688 79.6832 86.832C79.6832 88.976 79.9472 90.52 80.4752 91.464C81.0032 92.392 81.6832 92.856 82.5152 92.856C83.3312 92.856 84.0032 92.392 84.5312 91.464C85.0752 90.52 85.3472 88.976 85.3472 86.832C85.3472 84.688 85.0752 83.144 84.5312 82.2C84.0032 81.24 83.3312 80.76 82.5152 80.76ZM97.9883 80.28C98.5963 80.28 99.1083 80.368 99.5243 80.544C99.9403 80.704 100.276 80.928 100.532 81.216C100.82 81.52 101.02 81.928 101.132 82.44C101.244 82.936 101.3 83.568 101.3 84.336V90.768C101.3 91.44 101.428 91.896 101.684 92.136C101.94 92.376 102.372 92.496 102.98 92.496V93C102.708 92.984 102.284 92.968 101.708 92.952C101.148 92.92 100.596 92.904 100.052 92.904C99.5083 92.904 98.9723 92.92 98.4443 92.952C97.9323 92.968 97.5403 92.984 97.2683 93V92.496C97.7963 92.496 98.1643 92.376 98.3723 92.136C98.5963 91.896 98.7083 91.44 98.7083 90.768V83.664C98.7083 83.2 98.6763 82.784 98.6123 82.416C98.5483 82.032 98.3963 81.728 98.1563 81.504C97.9323 81.264 97.5723 81.144 97.0763 81.144C96.5163 81.144 96.0123 81.312 95.5643 81.648C95.1323 81.984 94.7803 82.448 94.5083 83.04C94.2523 83.616 94.1243 84.264 94.1243 84.984V90.768C94.1243 91.44 94.2363 91.896 94.4603 92.136C94.6843 92.376 95.0523 92.496 95.5643 92.496V93C95.3083 92.984 94.9243 92.968 94.4123 92.952C93.9003 92.92 93.3723 92.904 92.8283 92.904C92.2843 92.904 91.7163 92.92 91.1243 92.952C90.5323 92.968 90.0923 92.984 89.8043 93V92.496C90.4282 92.496 90.8683 92.376 91.1243 92.136C91.3963 91.896 91.5323 91.44 91.5323 90.768V83.232C91.5323 82.512 91.4123 81.984 91.1723 81.648C90.9323 81.296 90.4763 81.12 89.8043 81.12V80.616C90.3163 80.664 90.8123 80.688 91.2923 80.688C91.8363 80.688 92.3403 80.664 92.8043 80.616C93.2843 80.552 93.7243 80.464 94.1243 80.352V82.968C94.5403 82.008 95.0923 81.32 95.7803 80.904C96.4843 80.488 97.2203 80.28 97.9883 80.28ZM105.212 80.28C105.82 80.28 106.332 80.368 106.748 80.544C107.164 80.704 107.5 80.928 107.756 81.216C108.044 81.52 108.244 81.928 108.356 82.44C108.468 82.936 108.524 83.568 108.524 84.336V90.768C108.524 91.44 108.652 91.896 108.908 92.136C109.18 92.376 109.628 92.496 110.252 92.496V93C109.98 92.984 109.556 92.968 108.98 92.952C108.404 92.92 107.836 92.904 107.276 92.904C106.732 92.904 106.196 92.92 105.668 92.952C105.156 92.968 104.764 92.984 104.492 93V92.496C105.02 92.496 105.388 92.376 105.596 92.136C105.82 91.896 105.932 91.44 105.932 90.768V83.664C105.932 83.2 105.9 82.784 105.836 82.416C105.772 82.032 105.62 81.728 105.38 81.504C105.14 81.264 104.764 81.144 104.252 81.144C103.692 81.144 103.188 81.32 102.74 81.672C102.308 82.008 101.956 82.472 101.684 83.064C101.428 83.64 101.3 84.288 101.3 85.008L101.204 83.016C101.636 81.96 102.212 81.24 102.932 80.856C103.668 80.472 104.428 80.28 105.212 80.28ZM115.426 80.352V95.064C115.426 95.768 115.626 96.24 116.026 96.48C116.426 96.72 116.978 96.84 117.682 96.84V97.344C117.314 97.328 116.802 97.304 116.146 97.272C115.49 97.256 114.786 97.248 114.034 97.248C113.506 97.248 112.986 97.256 112.474 97.272C111.962 97.304 111.57 97.328 111.298 97.344V96.84C111.858 96.84 112.25 96.728 112.474 96.504C112.714 96.296 112.834 95.896 112.834 95.304V83.232C112.834 82.512 112.714 81.984 112.474 81.648C112.234 81.296 111.778 81.12 111.106 81.12V80.616C111.618 80.664 112.114 80.688 112.594 80.688C113.122 80.688 113.626 80.664 114.106 80.616C114.586 80.552 115.026 80.464 115.426 80.352ZM119.242 80.28C120.074 80.28 120.818 80.512 121.474 80.976C122.146 81.424 122.674 82.088 123.058 82.968C123.442 83.848 123.634 84.944 123.634 86.256C123.634 87.216 123.522 88.128 123.298 88.992C123.074 89.84 122.73 90.592 122.266 91.248C121.818 91.888 121.25 92.4 120.562 92.784C119.874 93.152 119.058 93.336 118.114 93.336C117.41 93.336 116.786 93.184 116.242 92.88C115.714 92.576 115.338 92.192 115.114 91.728L115.354 91.392C115.562 91.792 115.85 92.12 116.218 92.376C116.602 92.632 117.074 92.76 117.634 92.76C118.466 92.76 119.114 92.496 119.578 91.968C120.058 91.424 120.394 90.696 120.586 89.784C120.778 88.856 120.874 87.808 120.874 86.64C120.874 85.328 120.778 84.272 120.586 83.472C120.394 82.656 120.106 82.064 119.722 81.696C119.338 81.312 118.874 81.12 118.33 81.12C117.61 81.12 116.954 81.408 116.362 81.984C115.786 82.56 115.434 83.424 115.306 84.576L115.066 84.072C115.274 82.872 115.754 81.944 116.506 81.288C117.274 80.616 118.186 80.28 119.242 80.28ZM128.72 93.168C128.048 93.168 127.472 93.04 126.992 92.784C126.512 92.528 126.152 92.176 125.912 91.728C125.672 91.28 125.552 90.768 125.552 90.192C125.552 89.488 125.712 88.92 126.032 88.488C126.352 88.04 126.76 87.68 127.256 87.408C127.768 87.136 128.304 86.912 128.864 86.736C129.44 86.544 129.976 86.368 130.472 86.208C130.984 86.032 131.4 85.832 131.72 85.608C132.056 85.384 132.224 85.088 132.224 84.72V83.088C132.224 82.512 132.128 82.056 131.936 81.72C131.76 81.368 131.512 81.12 131.192 80.976C130.888 80.832 130.52 80.76 130.088 80.76C129.72 80.76 129.328 80.816 128.912 80.928C128.496 81.024 128.168 81.224 127.928 81.528C128.28 81.624 128.568 81.816 128.792 82.104C129.032 82.376 129.152 82.72 129.152 83.136C129.152 83.584 129 83.936 128.696 84.192C128.408 84.448 128.04 84.576 127.592 84.576C127.096 84.576 126.728 84.424 126.488 84.12C126.248 83.8 126.128 83.432 126.128 83.016C126.128 82.584 126.232 82.232 126.44 81.96C126.664 81.688 126.952 81.432 127.304 81.192C127.688 80.936 128.176 80.72 128.768 80.544C129.376 80.368 130.048 80.28 130.784 80.28C131.472 80.28 132.064 80.36 132.56 80.52C133.072 80.664 133.496 80.904 133.832 81.24C134.232 81.608 134.496 82.072 134.624 82.632C134.752 83.176 134.816 83.84 134.816 84.624V91.248C134.816 91.648 134.864 91.936 134.96 92.112C135.072 92.272 135.248 92.352 135.488 92.352C135.648 92.352 135.8 92.312 135.944 92.232C136.104 92.152 136.288 92.032 136.496 91.872L136.736 92.28C136.4 92.552 136.056 92.768 135.704 92.928C135.368 93.088 134.936 93.168 134.408 93.168C133.896 93.168 133.48 93.088 133.16 92.928C132.84 92.768 132.6 92.536 132.44 92.232C132.296 91.928 132.224 91.552 132.224 91.104C131.808 91.776 131.312 92.288 130.736 92.64C130.16 92.992 129.488 93.168 128.72 93.168ZM129.872 92.016C130.32 92.016 130.736 91.888 131.12 91.632C131.52 91.376 131.888 90.992 132.224 90.48V85.704C132.048 85.96 131.792 86.184 131.456 86.376C131.12 86.552 130.76 86.736 130.376 86.928C129.992 87.12 129.624 87.344 129.272 87.6C128.936 87.84 128.656 88.152 128.432 88.536C128.208 88.92 128.096 89.408 128.096 90C128.096 90.624 128.256 91.12 128.576 91.488C128.896 91.84 129.328 92.016 129.872 92.016ZM145.805 80.28C146.445 80.28 146.965 80.368 147.365 80.544C147.781 80.704 148.125 80.928 148.397 81.216C148.685 81.52 148.885 81.912 148.997 82.392C149.125 82.872 149.189 83.52 149.189 84.336V90.768C149.189 91.44 149.317 91.896 149.573 92.136C149.845 92.376 150.293 92.496 150.917 92.496V93C150.645 92.984 150.221 92.968 149.645 92.952C149.069 92.92 148.501 92.904 147.941 92.904C147.397 92.904 146.853 92.92 146.309 92.952C145.781 92.968 145.381 92.984 145.109 93V92.496C145.653 92.496 146.037 92.376 146.261 92.136C146.485 91.896 146.597 91.44 146.597 90.768V83.664C146.597 83.2 146.557 82.784 146.477 82.416C146.397 82.032 146.229 81.728 145.973 81.504C145.717 81.264 145.333 81.144 144.821 81.144C144.229 81.144 143.701 81.312 143.237 81.648C142.789 81.984 142.429 82.448 142.157 83.04C141.901 83.616 141.773 84.264 141.773 84.984V90.768C141.773 91.44 141.885 91.896 142.109 92.136C142.349 92.376 142.733 92.496 143.261 92.496V93C143.005 92.984 142.613 92.968 142.085 92.952C141.573 92.92 141.037 92.904 140.477 92.904C139.933 92.904 139.365 92.92 138.773 92.952C138.181 92.968 137.741 92.984 137.453 93V92.496C138.077 92.496 138.517 92.376 138.773 92.136C139.045 91.896 139.181 91.44 139.181 90.768V83.232C139.181 82.512 139.061 81.984 138.821 81.648C138.581 81.296 138.125 81.12 137.453 81.12V80.616C137.965 80.664 138.461 80.688 138.941 80.688C139.485 80.688 139.989 80.664 140.453 80.616C140.933 80.552 141.373 80.464 141.773 80.352V82.968C142.189 81.976 142.757 81.28 143.477 80.88C144.213 80.48 144.989 80.28 145.805 80.28ZM163.031 80.616V81.096C162.727 81.144 162.447 81.304 162.191 81.576C161.935 81.832 161.687 82.28 161.447 82.92L157.703 92.952L157.127 93.528L152.447 82.464C152.143 81.84 151.847 81.464 151.559 81.336C151.287 81.192 151.055 81.12 150.863 81.12V80.616C151.263 80.664 151.687 80.704 152.135 80.736C152.583 80.752 153.047 80.76 153.527 80.76C154.071 80.76 154.615 80.744 155.159 80.712C155.719 80.68 156.239 80.648 156.719 80.616V81.12C156.335 81.12 155.991 81.152 155.687 81.216C155.399 81.264 155.207 81.416 155.111 81.672C155.031 81.912 155.111 82.328 155.351 82.92L158.327 90.24L158.159 90.312L160.583 83.88C160.823 83.24 160.919 82.728 160.871 82.344C160.823 81.944 160.655 81.648 160.367 81.456C160.079 81.248 159.655 81.128 159.095 81.096V80.616C159.367 80.632 159.615 80.648 159.839 80.664C160.079 80.664 160.311 80.672 160.535 80.688C160.759 80.688 160.983 80.688 161.207 80.688C161.559 80.688 161.887 80.68 162.191 80.664C162.511 80.648 162.791 80.632 163.031 80.616ZM157.703 92.952L156.839 95.208C156.679 95.608 156.511 95.944 156.335 96.216C156.175 96.488 155.999 96.712 155.807 96.888C155.567 97.112 155.271 97.272 154.919 97.368C154.567 97.464 154.215 97.512 153.863 97.512C153.527 97.512 153.207 97.448 152.903 97.32C152.615 97.208 152.375 97.032 152.183 96.792C151.991 96.552 151.895 96.256 151.895 95.904C151.895 95.488 152.031 95.152 152.303 94.896C152.575 94.64 152.935 94.512 153.383 94.512C153.783 94.512 154.119 94.616 154.391 94.824C154.663 95.048 154.799 95.368 154.799 95.784C154.799 96.072 154.719 96.32 154.559 96.528C154.415 96.736 154.223 96.896 153.983 97.008C154.031 97.024 154.079 97.032 154.127 97.032C154.175 97.032 154.215 97.032 154.247 97.032C154.695 97.032 155.095 96.88 155.447 96.576C155.799 96.288 156.095 95.816 156.335 95.16L157.199 92.856L157.703 92.952ZM169.381 76.008C169.749 76.024 170.221 76.04 170.797 76.056C171.389 76.072 171.973 76.08 172.549 76.08C173.317 76.08 174.045 76.072 174.733 76.056C175.437 76.04 175.933 76.032 176.221 76.032C178.253 76.032 179.773 76.472 180.781 77.352C181.789 78.232 182.293 79.368 182.293 80.76C182.293 81.336 182.189 81.944 181.981 82.584C181.789 83.208 181.445 83.792 180.949 84.336C180.453 84.864 179.781 85.296 178.933 85.632C178.085 85.968 177.005 86.136 175.693 86.136H173.341V85.656H175.453C176.525 85.656 177.341 85.44 177.901 85.008C178.477 84.576 178.861 84.008 179.053 83.304C179.261 82.6 179.365 81.84 179.365 81.024C179.365 79.504 179.093 78.368 178.549 77.616C178.005 76.864 177.061 76.488 175.717 76.488C175.029 76.488 174.573 76.624 174.349 76.896C174.141 77.168 174.037 77.72 174.037 78.552V90.408C174.037 91 174.101 91.448 174.229 91.752C174.357 92.04 174.597 92.232 174.949 92.328C175.301 92.424 175.821 92.48 176.509 92.496V93C176.077 92.968 175.517 92.952 174.829 92.952C174.141 92.936 173.429 92.928 172.693 92.928C172.053 92.928 171.437 92.936 170.845 92.952C170.269 92.952 169.781 92.968 169.381 93V92.52C169.925 92.488 170.333 92.424 170.605 92.328C170.877 92.232 171.053 92.04 171.133 91.752C171.229 91.464 171.277 91.032 171.277 90.456V78.552C171.277 77.96 171.229 77.528 171.133 77.256C171.053 76.968 170.869 76.776 170.581 76.68C170.309 76.568 169.909 76.504 169.381 76.488V76.008ZM191.306 80.28C191.77 80.28 192.162 80.376 192.482 80.568C192.818 80.76 193.066 81.008 193.226 81.312C193.402 81.6 193.49 81.928 193.49 82.296C193.49 82.76 193.346 83.16 193.058 83.496C192.786 83.816 192.418 83.976 191.954 83.976C191.554 83.976 191.21 83.856 190.922 83.616C190.65 83.376 190.514 83.048 190.514 82.632C190.514 82.28 190.602 81.984 190.778 81.744C190.97 81.488 191.186 81.288 191.426 81.144C191.266 81.016 191.074 80.96 190.85 80.976C190.418 80.992 190.018 81.136 189.65 81.408C189.282 81.664 188.97 82 188.714 82.416C188.458 82.816 188.258 83.248 188.114 83.712C187.97 84.176 187.898 84.608 187.898 85.008V90.528C187.898 91.312 188.114 91.84 188.546 92.112C188.978 92.368 189.578 92.496 190.346 92.496V93C189.978 92.984 189.45 92.968 188.762 92.952C188.09 92.92 187.378 92.904 186.626 92.904C186.05 92.904 185.474 92.92 184.898 92.952C184.322 92.968 183.882 92.984 183.578 93V92.496C184.202 92.496 184.642 92.376 184.898 92.136C185.17 91.896 185.306 91.44 185.306 90.768V83.232C185.306 82.512 185.186 81.984 184.946 81.648C184.706 81.296 184.25 81.12 183.578 81.12V80.616C184.09 80.664 184.586 80.688 185.066 80.688C185.61 80.688 186.114 80.664 186.578 80.616C187.058 80.552 187.498 80.464 187.898 80.352V83.112C188.09 82.648 188.346 82.2 188.666 81.768C188.986 81.336 189.37 80.984 189.818 80.712C190.266 80.424 190.762 80.28 191.306 80.28ZM200.007 80.28C201.079 80.28 202.031 80.504 202.863 80.952C203.695 81.4 204.359 82.104 204.855 83.064C205.351 84.024 205.599 85.28 205.599 86.832C205.599 88.384 205.351 89.64 204.855 90.6C204.359 91.544 203.695 92.24 202.863 92.688C202.031 93.12 201.079 93.336 200.007 93.336C198.951 93.336 197.999 93.12 197.151 92.688C196.303 92.24 195.631 91.544 195.135 90.6C194.655 89.64 194.415 88.384 194.415 86.832C194.415 85.28 194.655 84.024 195.135 83.064C195.631 82.104 196.303 81.4 197.151 80.952C197.999 80.504 198.951 80.28 200.007 80.28ZM200.007 80.76C199.175 80.76 198.495 81.24 197.967 82.2C197.439 83.144 197.175 84.688 197.175 86.832C197.175 88.976 197.439 90.52 197.967 91.464C198.495 92.392 199.175 92.856 200.007 92.856C200.823 92.856 201.495 92.392 202.023 91.464C202.567 90.52 202.839 88.976 202.839 86.832C202.839 84.688 202.567 83.144 202.023 82.2C201.495 81.24 200.823 80.76 200.007 80.76ZM215.528 74.232C216.04 74.232 216.504 74.264 216.92 74.328C217.352 74.392 217.736 74.48 218.072 74.592C218.408 74.704 218.696 74.84 218.936 75C219.208 75.16 219.424 75.36 219.584 75.6C219.744 75.84 219.824 76.112 219.824 76.416C219.824 76.896 219.656 77.296 219.32 77.616C218.984 77.92 218.56 78.072 218.048 78.072C217.536 78.072 217.112 77.92 216.776 77.616C216.44 77.296 216.272 76.904 216.272 76.44C216.272 76.12 216.36 75.832 216.536 75.576C216.728 75.304 216.992 75.096 217.328 74.952C217.136 74.84 216.88 74.76 216.56 74.712C216.256 74.648 215.944 74.616 215.624 74.616C214.824 74.616 214.152 74.784 213.608 75.12C213.08 75.44 212.656 75.88 212.336 76.44C212.112 76.84 211.944 77.352 211.832 77.976C211.736 78.584 211.688 79.472 211.688 80.64H215.216C215.92 80.64 216.52 80.632 217.016 80.616C217.528 80.6 217.984 80.576 218.384 80.544C218.8 80.496 219.2 80.432 219.584 80.352V90.768C219.584 91.44 219.72 91.896 219.992 92.136C220.264 92.376 220.72 92.496 221.36 92.496V93C221.072 92.984 220.64 92.968 220.064 92.952C219.488 92.92 218.904 92.904 218.312 92.904C217.736 92.904 217.152 92.92 216.56 92.952C215.984 92.968 215.552 92.984 215.264 93V92.496C215.888 92.496 216.328 92.376 216.584 92.136C216.856 91.896 216.992 91.44 216.992 90.768V83.232C216.992 82.512 216.864 81.984 216.608 81.648C216.368 81.296 215.904 81.12 215.216 81.12H211.688V90.768C211.688 91.456 211.864 91.92 212.216 92.16C212.584 92.384 213.08 92.496 213.704 92.496V93C213.368 92.984 212.896 92.968 212.288 92.952C211.68 92.92 211.056 92.904 210.416 92.904C209.792 92.904 209.192 92.92 208.616 92.952C208.04 92.968 207.608 92.984 207.32 93V92.496C207.96 92.496 208.416 92.376 208.688 92.136C208.96 91.896 209.096 91.44 209.096 90.768V81.12H207.224V80.64H209.096C209.096 79.632 209.232 78.728 209.504 77.928C209.792 77.112 210.248 76.408 210.872 75.816C211.384 75.352 212.024 74.976 212.792 74.688C213.576 74.384 214.488 74.232 215.528 74.232ZM226.683 74.184V90.768C226.683 91.44 226.811 91.896 227.067 92.136C227.339 92.376 227.787 92.496 228.411 92.496V93C228.139 92.984 227.715 92.968 227.139 92.952C226.563 92.92 225.987 92.904 225.411 92.904C224.835 92.904 224.251 92.92 223.659 92.952C223.083 92.968 222.651 92.984 222.363 93V92.496C222.987 92.496 223.427 92.376 223.683 92.136C223.955 91.896 224.091 91.44 224.091 90.768V77.064C224.091 76.344 223.971 75.816 223.731 75.48C223.491 75.128 223.035 74.952 222.363 74.952V74.448C222.875 74.496 223.371 74.52 223.851 74.52C224.379 74.52 224.883 74.496 225.363 74.448C225.843 74.384 226.283 74.296 226.683 74.184ZM235.28 80.28C236.688 80.28 237.792 80.704 238.592 81.552C239.392 82.4 239.792 83.744 239.792 85.584H231.512L231.464 85.128H237.248C237.264 84.344 237.2 83.624 237.056 82.968C236.912 82.296 236.688 81.76 236.384 81.36C236.08 80.96 235.68 80.76 235.184 80.76C234.496 80.76 233.896 81.128 233.384 81.864C232.888 82.584 232.584 83.744 232.472 85.344L232.544 85.464C232.528 85.688 232.512 85.936 232.496 86.208C232.48 86.464 232.472 86.72 232.472 86.976C232.472 88.08 232.64 89.008 232.976 89.76C233.312 90.512 233.752 91.08 234.296 91.464C234.84 91.832 235.392 92.016 235.952 92.016C236.384 92.016 236.8 91.952 237.2 91.824C237.616 91.68 238.008 91.448 238.376 91.128C238.744 90.792 239.072 90.336 239.36 89.76L239.84 89.952C239.648 90.496 239.352 91.032 238.952 91.56C238.552 92.088 238.04 92.52 237.416 92.856C236.792 93.176 236.064 93.336 235.232 93.336C234.112 93.336 233.136 93.088 232.304 92.592C231.472 92.08 230.832 91.352 230.384 90.408C229.936 89.464 229.712 88.344 229.712 87.048C229.712 85.624 229.944 84.408 230.408 83.4C230.872 82.392 231.52 81.624 232.352 81.096C233.2 80.552 234.176 80.28 235.28 80.28Z" fill="#FCF7F1"/>
<rect width="122" height="52" transform="translate(89 347)" fill="#FCF7F1"/>
<path d="M173 373H128" stroke="url(#paint1_linear_1498_9545)" stroke-width="1.5" stroke-linecap="round" stroke-linejoin="round"/>
<path d="M169 368L173.293 372.293C173.626 372.626 173.793 372.793 173.793 373C173.793 373.207 173.626 373.374 173.293 373.707L169 378" stroke="#001016" stroke-width="1.5" stroke-linecap="round" stroke-linejoin="round"/>
<defs>
<linearGradient id="paint0_linear_1498_9545" x1="150" y1="56" x2="150" y2="375" gradientUnits="userSpaceOnUse">
<stop stop-color="#FDF8F3" stop-opacity="0"/>
<stop offset="1" stop-color="#FDF8F3"/>
</linearGradient>
<linearGradient id="paint1_linear_1498_9545" x1="173" y1="373.5" x2="128" y2="373.5" gradientUnits="userSpaceOnUse">
<stop stop-color="#001016"/>
<stop offset="1" stop-color="#001016" stop-opacity="0"/>
</linearGradient>
</defs>
</svg>
