<svg width="18" height="17" viewBox="0 0 18 17" fill="none" xmlns="http://www.w3.org/2000/svg">
<path d="M12.6909 11.2679C10.5845 12.4543 9.3826 14.9129 9.00078 15.6001V4.80015C9.33236 4.20331 10.2824 2.49332 11.9061 1.33109C12.5902 0.841479 12.9322 0.596672 13.3665 0.819894C13.8008 1.04312 13.8008 1.53585 13.8008 2.52131V9.59326C13.8008 10.1256 13.8008 10.3918 13.6915 10.5788C13.5821 10.7659 13.2851 10.9332 12.6909 11.2679Z" stroke="#001016" stroke-width="1.2" stroke-linecap="round" stroke-linejoin="round"/>
<path d="M9 4.64457C8.45049 4.06734 6.8574 2.69644 4.18445 2.21578C2.83032 1.97228 2.15325 1.85053 1.57663 2.31719C1 2.78384 1 3.54162 1 5.05719V10.5039C1 11.8896 1 12.5825 1.37008 13.0151C1.74016 13.4477 2.55492 13.5942 4.18445 13.8872C5.63706 14.1485 6.77075 14.5647 7.59134 14.9829C8.3987 15.3944 8.8024 15.6001 9 15.6001C9.1976 15.6001 9.6013 15.3944 10.4087 14.9829C11.2292 14.5647 12.3629 14.1485 13.8156 13.8872C15.4451 13.5942 16.2598 13.4477 16.6299 13.0151C17 12.5825 17 11.8896 17 10.5039V5.05719C17 3.54162 17 2.78384 16.4234 2.31719C15.8467 1.85053 14.6 2.21578 13.8 2.80012" stroke="#001016" stroke-width="1.2" stroke-linecap="round" stroke-linejoin="round"/>
</svg>
