<svg width="41" height="40" viewBox="0 0 41 40" fill="none" xmlns="http://www.w3.org/2000/svg">
<path fill-rule="evenodd" clip-rule="evenodd" d="M38.1859 10.0011C39.8885 12.9422 40.8636 16.3577 40.8636 20.0001C40.8636 23.6425 39.8885 27.058 38.1859 29.9991C38.1008 30.1491 38.1558 30.0686 38.0646 30.2146C37.4362 29.9288 36.7736 29.6353 36.0398 29.6353L21.0545 29.7253C26.5781 29.7253 30.8625 25.5236 30.8625 20.0001C30.8625 14.4888 26.4052 10.0193 20.898 10.0011C23.6586 10.0011 25.8964 7.76132 25.8964 5.0006C25.8964 2.25208 23.6769 0.0183413 20.9324 6.10352e-05C24.5484 0.0123154 27.9397 0.985171 30.8625 2.67769C33.8989 4.43305 36.4306 6.96469 38.1859 10.0011Z" fill="#009EE0"/>
<path fill-rule="evenodd" clip-rule="evenodd" d="M35.5308 29.9991C36.2646 29.9991 36.9619 30.1571 37.5902 30.4429C39.3233 31.2274 40.5313 32.9725 40.5313 34.9995V40H20.5313C16.8888 40 13.4734 39.0251 10.5323 37.3224C7.49593 35.5671 4.96424 33.0354 3.20893 29.9991C1.50623 27.0579 0.53125 23.6425 0.53125 20C0.53125 16.3576 1.50623 12.9422 3.20893 10.001C4.96424 6.96463 7.49593 4.43299 10.5323 2.67763C13.4734 0.974982 16.8888 0 20.5313 0H20.6002C23.3448 0.0182803 25.5643 2.25202 25.5643 5.00054C25.5643 7.76126 23.3265 10.001 20.5658 10.001H20.5313C15.0078 10.001 10.5323 14.4766 10.5323 20C10.5323 25.5235 15.0078 29.9991 20.5313 29.9991H35.5308Z" fill="#009EE0"/>
</svg>
