<svg width="22" height="23" viewBox="0 0 22 23" fill="none" xmlns="http://www.w3.org/2000/svg">
<g clip-path="url(#clip0_113_269)">
<path fill-rule="evenodd" clip-rule="evenodd" d="M10.9601 1.21489C12.9433 1.23752 14.7349 1.72493 16.3349 2.67711C17.9158 3.61027 19.2309 4.9334 20.1544 6.51998C21.1008 8.12962 21.5852 9.93206 21.6078 11.9273C21.5516 14.6572 20.6906 16.9889 19.0247 18.9222C17.3588 20.8556 15.2251 22.0516 13.0165 22.5101V14.8563H15.1046L15.5768 11.8484H12.4149V9.87842C12.3974 9.47002 12.5265 9.06881 12.779 8.74735C13.0319 8.425 13.4772 8.25557 14.1149 8.23907H16.0243V5.60432C15.9969 5.59549 15.7369 5.56063 15.2444 5.49973C14.6858 5.43437 14.1241 5.39946 13.5617 5.39514C12.2889 5.40102 11.2823 5.76006 10.5419 6.47228C9.80136 7.18428 9.42311 8.21438 9.40709 9.5626V11.8484H7.00084V14.8563H9.40709V22.5102C6.69512 22.0517 4.56151 20.8556 2.89561 18.9223C1.22971 16.9889 0.368703 14.6572 0.3125 11.9273C0.334987 9.93197 0.819445 8.12953 1.76588 6.51998C2.68938 4.93339 4.00448 3.61024 5.58541 2.67707C7.18539 1.72508 8.97696 1.23772 10.9601 1.21489Z" fill="#FDF8F3"/>
</g>
<defs>
<clipPath id="clip0_113_269">
<rect width="22" height="22" fill="white" transform="translate(0 0.880859)"/>
</clipPath>
</defs>
</svg>
