<svg width="22" height="23" viewBox="0 0 22 23" fill="none" xmlns="http://www.w3.org/2000/svg">
<g clip-path="url(#clip0_113_272)">
<path d="M21.9789 7.34892C21.9274 6.17994 21.7384 5.37635 21.4675 4.67995C21.1882 3.94079 20.7584 3.27903 20.1954 2.72888C19.6452 2.17017 18.979 1.73602 18.2484 1.46105C17.5481 1.19029 16.7486 1.0012 15.5797 0.949709C14.402 0.893753 14.0281 0.880859 11.0412 0.880859C8.0543 0.880859 7.68044 0.893753 6.50712 0.945325C5.33819 0.996898 4.53456 1.18608 3.83837 1.45667C3.09899 1.73602 2.43723 2.16579 1.88708 2.72888C1.32838 3.27898 0.894437 3.94513 0.619254 4.67574C0.348498 5.37635 0.159441 6.17564 0.107912 7.34454C0.0519986 8.52224 0.0390625 8.8961 0.0390625 11.883C0.0390625 14.8699 0.0519986 15.2438 0.103528 16.4171C0.155101 17.5861 0.344286 18.3897 0.615085 19.0861C0.894437 19.8252 1.32838 20.487 1.88708 21.0371C2.43723 21.5958 3.10338 22.03 3.83399 22.305C4.53451 22.5757 5.3338 22.7648 6.50295 22.8163C7.67606 22.8681 8.05013 22.8808 11.037 22.8808C14.024 22.8808 14.3978 22.8681 15.5711 22.8163C16.7401 22.7648 17.5437 22.5758 18.2399 22.305C18.9711 22.0223 19.6351 21.5899 20.1895 21.0356C20.7438 20.4813 21.1762 19.8172 21.459 19.0861C21.7296 18.3855 21.9188 17.586 21.9703 16.4171C22.0219 15.2438 22.0348 14.8699 22.0348 11.883C22.0348 8.8961 22.0304 8.5222 21.9789 7.34892ZM19.9978 16.3311C19.9504 17.4056 19.77 17.9858 19.6195 18.3726C19.2498 19.3309 18.4892 20.0916 17.5308 20.4613C17.144 20.6118 16.5596 20.7922 15.4893 20.8394C14.329 20.8911 13.981 20.9038 11.0456 20.9038C8.11021 20.9038 7.75784 20.8911 6.60163 20.8394C5.5272 20.7922 4.94701 20.6118 4.56022 20.4613C4.0833 20.285 3.64919 20.0057 3.29677 19.6404C2.93147 19.2837 2.65212 18.8539 2.47582 18.3769C2.3254 17.9901 2.14494 17.4056 2.0978 16.3355C2.04605 15.1751 2.03333 14.8269 2.03333 11.8916C2.03333 8.95618 2.04605 8.60381 2.0978 7.44781C2.14494 6.37338 2.3254 5.79319 2.47582 5.4064C2.65212 4.92926 2.93147 4.49524 3.30116 4.14274C3.6577 3.77743 4.08747 3.49808 4.5646 3.322C4.95139 3.17158 5.53597 2.99108 6.60601 2.94376C7.7664 2.89219 8.1146 2.8793 11.0498 2.8793C13.9895 2.8793 14.3375 2.89219 15.4937 2.94376C16.5682 2.99112 17.1483 3.17154 17.5351 3.32196C18.0121 3.49808 18.4462 3.77743 18.7986 4.14274C19.1639 4.49949 19.4432 4.92926 19.6195 5.4064C19.77 5.79319 19.9504 6.37755 19.9977 7.44781C20.0493 8.60819 20.0622 8.95618 20.0622 11.8916C20.0622 14.8269 20.0494 15.1708 19.9978 16.3311Z" fill="#FDF8F3"/>
<path d="M11.0421 6.23029C7.92207 6.23029 5.39062 8.76156 5.39062 11.8818C5.39062 15.002 7.92207 17.5333 11.0421 17.5333C14.1623 17.5333 16.6936 15.002 16.6936 11.8818C16.6936 8.76156 14.1623 6.23029 11.0421 6.23029ZM11.0421 15.5477C9.01798 15.5477 7.37608 13.9061 7.37608 11.8818C7.37608 9.85748 9.01798 8.21584 11.0421 8.21584C13.0664 8.21584 14.7081 9.85748 14.7081 11.8818C14.7081 13.9061 13.0663 15.5477 11.0421 15.5477ZM18.2366 6.00681C18.2366 6.73545 17.6458 7.32621 16.917 7.32621C16.1884 7.32621 15.5977 6.73545 15.5977 6.00681C15.5977 5.27809 16.1884 4.6875 16.9171 4.6875C17.6458 4.6875 18.2366 5.27805 18.2366 6.00681Z" fill="#FDF8F3"/>
</g>
<defs>
<clipPath id="clip0_113_272">
<rect width="22" height="22" fill="white" transform="translate(0 0.880859)"/>
</clipPath>
</defs>
</svg>
